<svg width="180" height="69" viewBox="0 0 180 69" fill="none" xmlns="http://www.w3.org/2000/svg">
<path d="M29.5625 5.79257C30.0463 6.39039 30.2938 7.20482 30.7888 8.82524L41.5663 44.272C37.5169 42.1707 33.1716 40.6975 28.6794 39.903L21.658 16.1664C21.6034 15.9769 21.489 15.8101 21.3318 15.6909C21.1747 15.5718 20.9833 15.5066 20.7861 15.5053C20.5875 15.5048 20.3941 15.5691 20.2353 15.6884C20.0765 15.8077 19.9608 15.9755 19.9058 16.1664L12.973 39.8918C8.46054 40.6784 4.09572 42.1538 0.03125 44.2663L10.8594 8.81961C11.353 7.19919 11.6047 6.39039 12.0898 5.78695C12.5165 5.25959 13.0701 4.84917 13.6986 4.59414C14.4186 4.30859 15.2638 4.30859 16.9569 4.30859H24.6913C26.3886 4.30859 27.2338 4.30859 27.9481 4.59414C28.5809 4.84733 29.135 5.25947 29.5625 5.79257ZM30.8534 45.9571C29.0745 47.4791 25.5308 48.5171 21.4442 48.5171C16.4295 48.5171 12.2263 46.9572 11.1111 44.8529C10.7103 46.057 10.6231 47.4355 10.6231 48.3146C10.6231 48.3146 10.3588 52.6385 13.3639 55.6501C13.3639 54.0887 14.6323 52.82 16.1877 52.82C18.8623 52.82 18.8623 55.155 18.8567 57.0511V57.2213C18.8566 58.5863 19.2609 59.9208 20.0185 61.0561C20.7761 62.1915 21.8531 63.0768 23.1134 63.6003C22.7262 62.8085 22.5256 61.9385 22.527 61.0571C22.527 58.3142 24.1358 57.293 26.0033 56.1058C27.4925 55.1606 29.1463 54.1113 30.2881 52.007C30.8816 50.914 31.2163 49.6551 31.2163 48.3146C31.2163 47.4959 31.0897 46.7054 30.8534 45.9571ZM66.312 43.7206C70.8219 43.7206 74.2067 42.1114 75.5905 39.3812C75.5905 40.6823 75.6777 42.0228 75.8928 43.0665H83.308C82.962 41.5516 82.7877 39.4684 82.7877 36.7325V30.0455C82.7877 23.7101 79.0569 20.7154 70.7783 20.7154C63.5389 20.7154 58.6817 23.7101 58.122 28.6163H65.8339C66.0983 26.4909 67.873 25.3192 70.7783 25.3192C73.64 25.3192 75.2445 26.4909 75.2445 28.9202V29.5728L67.4005 30.2649C63.5825 30.6545 61.4183 31.3086 59.8967 32.3467C58.2936 33.4354 57.4681 35.084 57.4681 37.1221C57.4681 41.1999 60.8516 43.7164 66.3134 43.7164L66.312 43.7206ZM69.1738 39.2053C66.658 39.2053 65.142 38.2052 65.142 36.6003C65.142 34.9517 66.4006 34.0824 69.5647 33.6942L75.3767 33.0837V34.3919C75.3767 37.298 72.8581 39.2053 69.1738 39.2053ZM98.9413 43.7206C106.49 43.7206 110.346 40.8975 110.346 36.3415C110.346 32.5675 108.18 30.4843 102.929 29.7866L96.3875 29.051C94.52 28.7865 93.7395 28.3139 93.7395 27.2702C93.7395 26.0127 94.9981 25.4458 97.8598 25.4458C101.804 25.4458 104.534 26.3587 106.747 28.1381L110.257 24.6215C107.836 22.1051 103.627 20.7154 98.4252 20.7154C91.0986 20.7154 87.0205 23.3246 87.0205 27.7048C87.0205 31.5238 89.5377 33.6492 94.7408 34.3469L100.633 35.0403C102.974 35.3414 103.67 35.776 103.67 36.9027C103.67 38.2052 102.37 38.9029 99.3322 38.9029C94.828 38.9029 91.7891 37.6876 89.7514 35.43L85.7633 38.7271C88.4113 42.0228 92.9155 43.7206 98.9413 43.7206ZM116.465 26.2757V35.43C116.465 40.8089 119.502 43.5462 126.006 43.5462C128 43.5462 129.561 43.3253 131.033 42.8921V37.2544C130.053 37.4819 129.051 37.5979 128.045 37.6004C125.308 37.6004 123.968 36.3865 123.968 33.825V26.2757H131.077V21.3694H123.968V13.4291L116.465 16.2043V21.3694H111.609V26.2757H116.465ZM141.843 21.3694H134.995V43.0679H142.491V34.9517C142.491 32.6111 143.013 30.4843 144.446 29.1382C145.574 28.0945 147.177 27.5346 149.43 27.5346C150.254 27.5346 150.906 27.6162 151.643 27.7034V20.8912C151.165 20.804 150.819 20.804 150.209 20.804C145.92 20.804 143.013 23.281 141.843 27.3138V21.3694ZM166.464 43.7206C174.395 43.7206 179.988 39.5064 179.988 32.1765C179.988 24.886 174.396 20.7154 166.464 20.7154C158.488 20.7154 152.896 24.886 152.896 32.1765C152.896 39.5064 158.488 43.722 166.464 43.722V43.7206ZM166.464 38.7271C162.822 38.7271 160.525 36.3865 160.525 32.1765C160.525 27.9623 162.822 25.7103 166.464 25.7103C170.062 25.7103 172.357 27.9623 172.357 32.1765C172.357 36.3865 170.062 38.7271 166.464 38.7271Z" fill="#9CA3AF"/>
</svg>
