<svg width="95" height="95" viewBox="0 0 95 95" fill="none" xmlns="http://www.w3.org/2000/svg">
<path d="M30.2398 41.0893C30.2398 42.0789 30.3189 42.8706 30.5169 43.5435C30.7148 44.0185 30.9919 44.6518 31.3481 45.3643C31.5064 45.5227 31.546 45.7602 31.546 45.9581C31.546 46.2352 31.3877 46.4727 31.0314 46.7497L29.3689 47.8581C29.1314 48.0164 28.8939 48.0956 28.696 48.0956C28.4189 48.0956 28.1814 47.9372 27.9044 47.6997C27.5481 47.3039 27.2314 46.9081 26.9544 46.4727C26.7169 46.0372 26.4398 45.5227 26.1627 44.9289C24.1044 47.3435 21.5314 48.5706 18.4044 48.5706C16.1877 48.5706 14.446 47.9372 13.1398 46.6706C11.8731 45.4039 11.2002 43.7018 11.2002 41.5643C11.2002 39.3872 11.9919 37.606 13.5752 36.181C15.1981 34.8352 17.3356 34.1227 20.0273 34.1227C20.9377 34.1227 21.7689 34.2018 22.8377 34.3602C23.7481 34.4789 24.8169 34.6768 25.846 34.9143V33.0143C25.846 30.9956 25.4502 29.6893 24.6189 28.7789C23.7481 27.9477 22.3627 27.5914 20.3439 27.5914C19.3939 27.5914 18.4439 27.7102 17.4939 27.9081C16.5044 28.1456 15.5544 28.4227 14.6439 28.8185C14.2085 28.9768 13.8523 29.0956 13.7335 29.1352C13.5356 29.2143 13.4169 29.2143 13.2981 29.2143C12.9419 29.2143 12.7439 28.9768 12.7439 28.4227V27.1164C12.7439 26.7206 12.7835 26.4039 12.9419 26.206C13.0606 26.0081 13.2981 25.8497 13.6544 25.731C14.6044 25.1768 15.6731 24.781 16.9794 24.4643C18.3231 24.113 19.7072 23.94 21.096 23.9497C24.2231 23.9497 26.5189 24.6622 27.9835 26.0872C29.4481 27.5122 30.1606 29.6893 30.1606 32.5789V41.0893H30.2398ZM19.5523 45.1268C20.4231 45.1268 21.2939 44.9685 22.2439 44.6518C23.1939 44.3352 24.0252 43.7414 24.7377 42.9497C25.1731 42.4352 25.4898 41.881 25.7273 41.2477C25.7273 40.6143 25.9252 39.8622 25.9252 38.9518V37.8831C25.1335 37.606 24.3419 37.606 23.471 37.4081C22.6557 37.319 21.8369 37.2662 21.0169 37.2497C19.2356 37.2497 17.9689 37.606 17.0981 38.3185C16.2273 39.031 15.8314 40.0206 15.8314 41.3268C15.8314 42.5935 16.1085 43.5435 16.7814 44.1372C17.4148 44.8102 18.3252 45.1268 19.5523 45.1268ZM40.6898 47.9372C40.3066 47.9487 39.9263 47.8672 39.5814 47.6997C39.4627 47.5018 39.2648 47.1456 39.1064 46.6706L32.9314 26.3247C32.7731 25.731 32.6939 25.4539 32.6939 25.256C32.6939 24.8206 32.8919 24.5831 33.3273 24.5831H35.9002C36.4148 24.5831 36.771 24.6622 36.9294 24.8602C37.1669 25.0185 37.3252 25.3747 37.4835 25.8893L41.8773 43.306L45.9939 25.8893C46.1127 25.3747 46.271 25.0185 46.5085 24.8602C46.7064 24.7018 47.0627 24.5831 47.4981 24.5831H49.6752C50.1502 24.5831 50.5065 24.6622 50.7044 24.8602C50.9023 25.0185 51.1002 25.3747 51.2189 25.8893L55.4148 43.5435L59.9273 25.8893C60.0856 25.3747 60.2835 25.0185 60.4419 24.8602C60.6794 24.7018 60.996 24.5831 61.471 24.5831H63.9252C64.3606 24.5831 64.5981 24.8206 64.5981 25.256C64.5981 25.3747 64.5585 25.5331 64.5189 25.731C64.5189 25.731 64.4398 26.0477 64.3606 26.3247L57.9877 46.6706C57.8294 47.2247 57.671 47.5018 57.3939 47.6997C57.2356 47.8581 56.8794 47.9768 56.444 47.9768H54.1877C53.6731 47.9768 53.4356 47.8977 53.1189 47.6997C52.8528 47.4176 52.686 47.0562 52.6439 46.6706L48.5669 29.6893L44.4898 46.631C44.371 47.1456 44.2127 47.5018 44.0148 47.6997C43.688 47.8778 43.3175 47.9601 42.946 47.9372H40.6898ZM74.5335 48.6497C73.2273 48.6497 71.7627 48.4914 70.4564 48.1747C69.1502 47.8581 68.121 47.5018 67.4481 47.1456C67.1043 46.9802 66.8157 46.7191 66.6169 46.3935C66.5093 46.1716 66.4551 45.9276 66.4585 45.681V44.3352C66.4585 43.781 66.6565 43.5435 67.0523 43.5435H67.5273C67.6856 43.5435 67.9231 43.7414 68.2002 43.8602C69.071 44.256 70.0606 44.5727 71.0898 44.7706C72.1585 44.9685 73.2273 45.0872 74.2169 45.0872C75.8794 45.0872 77.1856 44.8102 78.0564 44.2164C78.9669 43.5435 79.4419 42.7914 79.4419 41.7227C79.4419 40.9706 79.1648 40.3768 78.7294 39.8622C78.2544 39.3872 77.3439 38.9122 76.0773 38.5164L72.2377 37.3289C70.3377 36.6956 68.9127 35.8247 68.0419 34.6372C67.192 33.538 66.7324 32.1871 66.7356 30.7977C66.7356 29.6893 66.9731 28.7393 67.4481 27.9081C67.9231 27.0372 68.5564 26.3247 69.2689 25.731C70.1398 25.1372 71.0106 24.7018 72.0794 24.3852C73.1085 24.0685 74.2169 23.9102 75.4044 23.9102C75.9585 23.9102 76.5523 23.9497 77.1856 24.0289C77.7398 24.1081 78.294 24.2268 78.8481 24.306C79.4023 24.4643 79.8773 24.5831 80.3523 24.7414C80.8273 24.8997 81.144 25.0581 81.4606 25.2164C81.8169 25.4143 82.0939 25.6122 82.2523 25.8497C82.4106 26.0872 82.4898 26.3643 82.4898 26.7206V27.9872C82.4898 28.5414 82.2919 28.8185 81.896 28.8185C81.6981 28.8185 81.3419 28.6997 80.8669 28.5018C79.4023 27.8289 77.7002 27.4727 75.8398 27.4727C74.3356 27.4727 73.2273 27.7102 72.3169 28.2247C71.5252 28.6997 71.0898 29.4914 71.0898 30.5602C71.0898 31.3122 71.3669 31.9456 71.8814 32.4206C72.396 32.9352 73.3856 33.4102 74.771 33.8852L78.5314 35.0727C80.4314 35.6268 81.7773 36.4977 82.6085 37.606C83.4002 38.6747 83.796 39.9018 83.796 41.2872C83.796 42.3956 83.5585 43.4247 83.1231 44.3352C82.6481 45.206 82.0148 45.9977 81.144 46.631C80.3919 47.3039 79.4023 47.7789 78.294 48.1352C77.1856 48.4914 75.8398 48.6497 74.5335 48.6497ZM79.4814 61.4747C70.8127 67.8477 58.2252 71.2518 47.4981 71.2518C32.2585 71.2518 18.6023 65.631 8.27103 56.3289C7.43978 55.5768 8.19186 54.5872 9.18145 55.181C20.3439 61.6331 34.0794 65.5518 48.3294 65.5518C57.9481 65.5518 68.5169 63.5727 78.2148 59.3768C79.6794 58.7831 80.9064 60.406 79.4814 61.4747ZM83.1231 57.3977C81.9752 55.9331 75.7606 56.6852 72.9502 57.0018C72.1189 57.1206 72.0002 56.3685 72.7523 55.8143C77.7002 52.3706 85.8544 53.4393 86.7648 54.5081C87.7148 55.6956 86.5273 63.8497 81.896 67.7289C81.144 68.3227 80.471 68.006 80.7877 67.2935C81.8564 64.6018 84.1919 58.7435 83.1231 57.3977Z" fill="#9CA3AF"/>
</svg>
