<svg width="199" height="107" viewBox="0 0 199 107" fill="none" xmlns="http://www.w3.org/2000/svg">
<path d="M5 2H193.999C195.656 2 196.999 3.34314 196.999 5V101.78C196.999 103.437 195.656 104.78 193.999 104.78H92.2152H91.0058H4.99999C3.34314 104.78 2 103.437 2 101.78V4.99999C2 3.34314 3.34314 2 5 2Z" stroke="white" stroke-width="4" stroke-linecap="round"/>
<path d="M3.11414 14.5586H87.8525M194.398 14.5586H104.052" stroke="white" stroke-width="4" stroke-linecap="round"/>
<circle cx="26.7003" cy="8.52643" r="2.42682" fill="white"/>
<circle cx="19.4034" cy="8.52643" r="2.42682" fill="white"/>
<circle cx="33.9737" cy="8.52643" r="2.42682" fill="white"/>
<path d="M156.766 61.0449C156.766 62.9779 155.199 64.5449 153.266 64.5449L112.173 64.5449C110.24 64.5449 108.673 62.9779 108.673 61.0449V33.6604C108.673 31.7274 110.24 30.1604 112.173 30.1604L153.266 30.1604C155.199 30.1604 156.766 31.7274 156.766 33.6604V61.0449Z" stroke="white" stroke-width="3"/>
<path d="M113.398 38.6328L152.029 38.6328" stroke="white" stroke-width="3" stroke-linecap="round"/>
<path d="M113.398 44.8613H125.86" stroke="white" stroke-width="2" stroke-linecap="round"/>
<path d="M130.844 44.8613H134.582" stroke="white" stroke-width="2" stroke-linecap="round"/>
<path d="M66.273 81.59C66.1717 81.8976 65.8844 82.1055 65.5606 82.1055L33.5479 82.1055C33.2295 82.1055 32.9458 81.9044 32.8403 81.604L23.3034 54.4502C23.1321 53.9624 23.494 53.4517 24.011 53.4517L74.5015 53.4517C75.0122 53.4517 75.3736 53.9511 75.2138 54.4362L66.273 81.59Z" stroke="white" stroke-width="2.5"/>
<circle cx="34.2678" cy="88.965" r="3.86153" stroke="white"/>
<circle cx="64.174" cy="89.0979" r="3.86153" stroke="white"/>
<line x1="37.3984" y1="82.4805" x2="37.3984" y2="54.6376" stroke="white"/>
<line x1="72.8281" y1="62.1953" x2="26.076" y2="62.1953" stroke="white"/>
<line x1="71.4609" y1="69.0742" x2="27.4589" y2="69.0742" stroke="white"/>
<line x1="68.7031" y1="75.9473" x2="30.2014" y2="75.9473" stroke="white"/>
<line x1="45.6406" y1="82.4805" x2="45.6406" y2="54.6376" stroke="white"/>
<line x1="53.8906" y1="82.4805" x2="53.8906" y2="54.6376" stroke="white"/>
<line x1="62.1406" y1="82.4805" x2="62.1406" y2="54.6376" stroke="white"/>
<path d="M13.707 49.0852L16.1667 49.0836C19.962 49.0811 23.4316 51.2273 25.124 54.6243L25.5025 55.384" stroke="white" stroke-width="2" stroke-linecap="round"/>
<path fill-rule="evenodd" clip-rule="evenodd" d="M97.8473 18.9008C97.552 17.6088 95.9428 17.1646 95.0261 18.1118L94.8344 18.2915L94.7923 18.2466C94.9551 17.9323 94.9119 17.5365 94.656 17.2635C94.3314 16.9173 93.9835 17.1087 93.6373 17.4333C93.2911 17.7579 93.0777 18.0927 93.4023 18.4389C93.6581 18.7118 94.0502 18.7805 94.3743 18.6384L94.4165 18.6834L93.1643 19.8573L93.1211 19.8113C93.284 19.4969 93.2408 19.1011 92.9848 18.8281C92.6603 18.4819 92.3124 18.6733 91.9662 18.9979C91.62 19.3225 91.4065 19.6573 91.7311 20.0035C91.987 20.2764 92.379 20.3451 92.7032 20.203L92.7464 20.2491L91.484 21.4326L91.4447 21.3907C91.6159 21.0742 91.5751 20.671 91.3155 20.3941C90.9909 20.0479 90.643 20.2393 90.2968 20.5639C89.9506 20.8885 89.7372 21.2233 90.0618 21.5695C90.314 21.8385 90.6984 21.9091 91.0198 21.775L91.0661 21.8244L89.8201 22.9926L89.7789 22.9486C89.9417 22.6343 89.8985 22.2385 89.6426 21.9655C89.318 21.6193 88.9701 21.8107 88.6239 22.1353C88.2777 22.4599 88.0643 22.7947 88.3889 23.1409C88.6447 23.4138 89.0368 23.4825 89.3609 23.3403L89.4022 23.3844L88.148 24.5604L88.1077 24.5175C88.2706 24.2031 88.2274 23.8073 87.9714 23.5343C87.6469 23.1881 87.299 23.3795 86.9528 23.7041C86.6066 24.0287 86.3931 24.3635 86.7177 24.7098C86.9736 24.9826 87.3656 25.0513 87.6898 24.9092L87.7301 24.9522L86.4784 26.1257L86.4359 26.0805C86.6004 25.7657 86.5576 25.3684 86.301 25.0947C85.9764 24.7485 85.6285 24.9399 85.2823 25.2645C84.9361 25.5891 84.7227 25.9239 85.0473 26.2701C85.3024 26.5422 85.693 26.6113 86.0166 26.4707L86.0604 26.5175L85.1265 27.3931C85.0193 27.4936 84.9162 27.598 84.8173 27.7061L84.7577 27.6424C84.9205 27.3281 84.8773 26.9323 84.6214 26.6593C84.2968 26.3131 83.9489 26.5045 83.6027 26.8291C83.2565 27.1537 83.0431 27.4885 83.3676 27.8347C83.6235 28.1076 84.0155 28.1763 84.3397 28.0342L84.4494 28.1511C84.1931 28.4949 83.9754 28.8672 83.801 29.2613L82.729 31.6841L61.1872 54.3374C60.3022 53.4359 60.1156 51.9852 60.4975 50.3751C60.7125 49.4687 61.0985 48.5783 61.5763 47.8338C62.059 47.0815 62.605 46.525 63.1127 46.2319L64.5437 45.4056L62.9797 44.8725C62.4571 44.6943 61.9068 44.7482 61.3987 44.9075C60.8887 45.0674 60.3687 45.3492 59.8611 45.7021C58.8455 46.4083 57.7845 47.4665 56.8227 48.6767C55.8576 49.8908 54.9695 51.2866 54.3117 52.6892C53.7349 53.9191 53.3174 55.192 53.2031 56.3733C48.9081 58.5075 45.9162 60.9524 45.0134 63.8548C44.0498 66.9524 45.5507 70.1869 49.336 73.5406C51.8336 75.7535 53.913 77.0297 55.7077 77.5369C57.5475 78.0569 59.0699 77.7614 60.3523 76.9007C61.5893 76.0704 62.5503 74.7487 63.395 73.321C63.8997 72.468 64.3983 71.5108 64.8952 70.557L64.8952 70.557L64.8952 70.5569L64.8953 70.5568C65.2014 69.9691 65.5069 69.3828 65.8126 68.8231C66.7837 68.5186 67.7597 67.9333 68.6578 67.2247C69.6787 66.4192 70.6435 65.4192 71.4417 64.3857C72.2371 63.356 72.8895 62.264 73.2614 61.267C73.6125 60.3258 73.7991 59.2377 73.2901 58.4106L72.3905 56.9486L71.929 58.6019C71.8102 59.0274 71.4728 59.5334 70.9239 60.0283C70.3839 60.5153 69.6869 60.9474 68.9361 61.2415C67.4979 61.8049 66.0857 61.7951 65.1476 61.0445L87.0333 35.1511L88.8179 34.6177C90.0953 34.2359 91.2004 33.422 91.944 32.3153L97.94 23.3914C98.3845 22.73 98.5358 21.9143 98.3583 21.1374L97.8473 18.9008ZM85.9496 34.1096C86.0427 33.9573 86.1901 33.8375 86.3746 33.7824L88.3883 33.1805C89.3326 32.8983 90.1493 32.2967 90.6989 31.4787L96.695 22.5548C96.9086 22.2369 96.9813 21.8449 96.896 21.4715L96.385 19.235C96.3552 19.1049 96.1923 19.0608 96.101 19.158L96.0846 19.1755L96.0672 19.1919L86.1525 28.4874C85.7366 28.8773 85.4034 29.3469 85.1727 29.8682L84.1344 32.215C84.1077 32.3495 84.0438 32.4783 83.9423 32.585L57.7572 60.1211C57.6597 60.2236 57.6667 60.3866 57.7726 60.4805L60.9476 63.2935C61.0527 63.3866 61.2137 63.375 61.3043 63.2678L85.9496 34.1096ZM62.4499 64.2361L64.1786 62.1909C65.7101 63.451 67.8083 63.2943 69.4832 62.6382C70.2264 62.347 70.9309 61.944 71.5342 61.4729C71.2165 62.1053 70.7794 62.7893 70.2546 63.4688C69.5228 64.4162 68.6429 65.3258 67.7287 66.0471C66.8065 66.7747 65.8929 67.2764 65.0942 67.4663C64.8059 67.5348 64.5965 67.7611 64.5356 68.0319C64.1801 68.6801 63.8503 69.3142 63.5291 69.9318L63.5289 69.9322C63.0535 70.8462 62.597 71.7239 62.104 72.5572C61.2859 73.94 60.4644 75.0188 59.5163 75.6552C58.6136 76.2611 57.5485 76.4984 56.1156 76.0935C54.6375 75.6757 52.759 74.5693 50.3307 72.4179C46.6893 69.1916 45.7509 66.5341 46.4457 64.3003C47.1706 61.9701 49.7579 59.7146 54.1772 57.5659C54.4596 57.4645 54.6649 57.198 54.6734 56.88C54.7008 55.8577 55.0622 54.6215 55.6697 53.3261C56.273 52.0398 57.0967 50.7426 57.9969 49.61C58.6762 48.7553 59.3863 48.0105 60.0622 47.4396C59.6127 48.228 59.2539 49.1186 59.038 50.0289C58.6002 51.8744 58.7189 54.0174 60.1511 55.427L56.6702 59.0874C55.9876 59.8053 56.0364 60.9462 56.7779 61.6032L59.9529 64.4163C60.6882 65.0678 61.8157 64.9864 62.4499 64.2361ZM55.8217 70.8251C56.0368 70.8318 56.2532 70.7465 56.4071 70.5728C56.6818 70.2628 56.6531 69.7887 56.3431 69.5141L52.0554 65.7152C51.7453 65.4405 51.2713 65.4691 50.9967 65.7792C50.8446 65.9508 50.7855 66.1726 50.8156 66.383C50.6005 66.3763 50.3841 66.4616 50.2302 66.6353C49.9555 66.9453 49.9842 67.4193 50.2942 67.694L54.5819 71.4929C54.892 71.7676 55.366 71.739 55.6406 71.4289C55.7927 71.2573 55.8518 71.0355 55.8217 70.8251ZM59.8316 66.712C59.5569 67.022 59.0829 67.0507 58.7729 66.776L54.4852 62.9771C54.1752 62.7024 54.1465 62.2284 54.4212 61.9184C54.6959 61.6084 55.1699 61.5797 55.4799 61.8544L59.7676 65.6533C60.0777 65.928 60.1063 66.402 59.8316 66.712Z" fill="white"/>
<circle cx="35.3227" cy="48.9394" r="13.2506" transform="rotate(-31.0104 35.3227 48.9394)" stroke="white"/>
<path d="M41.7742 60.3193C45.5842 58.029 45.6559 51.1533 41.9342 44.962C38.2126 38.7706 32.1069 35.6082 28.2969 37.8984" stroke="white"/>
<path d="M41.7742 60.3193C37.9641 62.6095 31.8585 59.4471 28.1368 53.2557C24.4152 47.0644 24.4868 40.1887 28.2969 37.8984" stroke="white"/>
<path d="M39.9076 36.3947C41.6253 39.2522 39.0282 43.9668 34.1069 46.9251C29.1856 49.8833 23.8036 49.965 22.0859 47.1074" stroke="white"/>
<path d="M48.2123 50.1955C46.4946 47.3379 41.1126 47.4196 36.1913 50.3778C31.27 53.336 28.6729 58.0507 30.3906 60.9082" stroke="white"/>
<line x1="28.5836" y1="37.7309" x2="41.7154" y2="59.5768" stroke="white" stroke-width="2"/>
<line x1="46.7342" y1="41.8817" x2="24.3133" y2="55.359" stroke="white"/>
<path d="M172.819 77.7956C173.278 77.4895 173.403 76.8687 173.097 76.409C172.791 75.9493 172.17 75.8247 171.71 76.1308L172.819 77.7956ZM168.272 79.6216L168.826 80.454L168.272 79.6216ZM159.77 82.3459L160.013 83.316L159.77 82.3459ZM160.013 83.316L165.399 81.9691L164.913 80.0289L159.528 81.3758L160.013 83.316ZM168.826 80.454L172.819 77.7956L171.71 76.1308L167.718 78.7892L168.826 80.454ZM139.902 73.1481L144.301 77.5525L145.716 76.1391L141.317 71.7347L139.902 73.1481ZM146.821 79.4379L152.081 82.3039L153.038 80.5477L147.778 77.6816L146.821 79.4379ZM144.301 77.5525C145.047 78.2985 145.895 78.9334 146.821 79.4379L147.778 77.6816C147.02 77.2689 146.326 76.7494 145.716 76.1391L144.301 77.5525ZM165.399 81.9691C166.619 81.6638 167.779 81.1513 168.826 80.454L167.718 78.7892C166.861 79.3598 165.912 79.7791 164.913 80.0289L165.399 81.9691ZM159.528 81.3758C157.337 81.9236 155.021 81.628 153.038 80.5477L152.081 82.3039C154.504 83.6243 157.336 83.9855 160.013 83.316L159.528 81.3758Z" fill="white"/>
<path d="M172.267 64.2035C172.819 64.2035 173.267 64.6512 173.267 65.2035C173.267 65.7558 172.819 66.2035 172.267 66.2035L172.267 64.2035ZM153.274 70.6302L153.788 71.4877L153.551 71.6302L153.274 71.6302L153.274 70.6302ZM147.421 70.6302L147.421 71.6302L147.421 70.6302ZM160.566 66.9169L162.473 66.9169L162.473 68.9169L160.566 68.9169L160.566 66.9169ZM140.702 73.6669L141.355 72.7527L142.982 73.915L142.329 74.8292L140.702 73.6669ZM147.421 69.6302L153.274 69.6302L153.274 71.6302L147.421 71.6302L147.421 69.6302ZM152.759 69.7727L154.906 68.4844L155.935 70.1994L153.788 71.4877L152.759 69.7727ZM169.024 64.2035L172.267 64.2035L172.267 66.2035L169.024 66.2035L169.024 64.2035ZM144.366 70.2849C145.327 69.8534 146.368 69.6302 147.421 69.6302L147.421 71.6302C146.651 71.6302 145.889 71.7935 145.186 72.1093L144.366 70.2849ZM141.355 72.7527C142.122 71.6778 143.162 70.8262 144.366 70.2849L145.186 72.1093C144.304 72.5053 143.544 73.1285 142.982 73.915L141.355 72.7527ZM166.133 65.4008C166.9 64.6342 167.94 64.2035 169.024 64.2035L169.024 66.2035C168.47 66.2035 167.939 66.4235 167.547 66.8151L166.133 65.4008ZM162.473 66.9169C163.846 66.9169 165.163 66.3715 166.133 65.4008L167.547 66.8151C166.202 68.1608 164.376 68.9169 162.473 68.9169L162.473 66.9169ZM160.566 68.9169C158.934 68.9169 157.334 69.3602 155.935 70.1994L154.906 68.4844C156.616 67.4587 158.572 66.9169 160.566 66.9169L160.566 68.9169Z" fill="white"/>
<rect x="172.875" y="61.8086" width="9.35346" height="20.2069" rx="1.25" stroke="white" stroke-width="1.5"/>
<path d="M152.219 72.7207C151.666 72.7207 151.219 73.1684 151.219 73.7207C151.219 74.273 151.666 74.7207 152.219 74.7207V72.7207ZM152.219 74.7207H166.69V72.7207H152.219V74.7207Z" fill="white"/>
</svg>
