<svg width="90" height="91" viewBox="0 0 90 91" fill="none" xmlns="http://www.w3.org/2000/svg">
<path opacity="0.6" d="M43.7531 8H31.2506C27.9353 8 24.7557 9.31703 22.4113 11.6613C20.067 14.0057 18.75 17.1853 18.75 20.5006C18.75 23.816 20.067 26.9956 22.4113 29.3399C24.7557 31.6842 27.9353 33.0012 31.2506 33.0012H43.7531V8Z" fill="#9CA3AF"/>
<path opacity="0.4" d="M43.7512 33H31.2488C27.9339 33 24.7548 34.3168 22.4108 36.6608C20.0668 39.0048 18.75 42.1839 18.75 45.4988C18.75 48.8136 20.0668 51.9927 22.4108 54.3367C24.7548 56.6807 27.9339 57.9975 31.2488 57.9975H43.7512V33Z" fill="#9CA3AF"/>
<path d="M68.7512 45.5006C68.7512 48.816 67.4342 51.9956 65.0899 54.3399C62.7456 56.6842 59.566 58.0012 56.2506 58.0012C52.9353 58.0012 49.7557 56.6842 47.4113 54.3399C45.067 51.9956 43.75 48.816 43.75 45.5006C43.75 42.1853 45.067 39.0057 47.4113 36.6613C49.7557 34.317 52.9353 33 56.2506 33C59.566 33 62.7456 34.317 65.0899 36.6613C67.4342 39.0057 68.7512 42.1853 68.7512 45.5006Z" fill="#9CA3AF"/>
<path opacity="0.2" d="M31.245 58.0039H43.7475V70.5027C43.7468 72.9744 43.0132 75.3903 41.6395 77.4452C40.2659 79.5 38.3138 81.1014 36.0301 82.047C33.7464 82.9925 31.2336 83.2397 28.8095 82.7573C26.3853 82.2749 24.1586 81.0846 22.4108 79.3369C20.663 77.5891 19.4727 75.3624 18.9903 72.9382C18.508 70.514 18.7552 68.0013 19.7007 65.7176C20.6462 63.4339 22.2476 61.4818 24.3025 60.1081C26.3573 58.7345 28.7733 58.0046 31.245 58.0039Z" fill="#9CA3AF"/>
<path opacity="0.8" d="M43.75 8H56.2487C59.5641 8 62.7437 9.31703 65.088 11.6613C67.4323 14.0057 68.7494 17.1853 68.7494 20.5006C68.7494 23.816 67.4323 26.9956 65.088 29.3399C62.7437 31.6842 59.5641 33.0012 56.2487 33.0012H43.75V8Z" fill="#9CA3AF"/>
</svg>
