<svg width="182" height="75" viewBox="0 0 182 75" fill="none" xmlns="http://www.w3.org/2000/svg">
<path d="M33.5 2.5C39.5777 2.5 45.1828 3.9893 50.3154 6.96789C55.448 9.94648 59.5119 13.9878 62.5072 19.0919C65.5024 24.196 67 29.77 67 35.814C67 43.0725 64.8699 49.6008 60.6097 55.3989C56.3495 61.1971 50.8461 65.2095 44.0996 67.4362C43.3145 67.5808 42.7329 67.4796 42.3548 67.1326C41.9768 66.7855 41.7878 66.3518 41.7878 65.8312C41.7878 65.7445 41.795 64.6384 41.8096 62.5129C41.8241 60.3874 41.8314 58.4426 41.8314 56.6786C41.8314 53.8735 41.0753 51.8203 39.5632 50.519C41.2207 50.3455 42.711 50.0852 44.0342 49.7382C45.3573 49.3911 46.7241 48.8272 48.1344 48.0464C49.5448 47.2656 50.7225 46.3041 51.6676 45.1618C52.6127 44.0196 53.3834 42.5013 53.9795 40.6072C54.5756 38.713 54.8737 36.5369 54.8737 34.0789C54.8737 30.6376 53.725 27.659 51.4277 25.1431C52.5037 22.5115 52.3874 19.5618 51.0788 16.2941C50.2645 16.0338 49.0868 16.1929 47.5456 16.7712C46.0043 17.3496 44.6667 17.9858 43.5326 18.6798L41.875 19.7209C39.1706 18.969 36.3789 18.5931 33.5 18.5931C30.6211 18.5931 27.8294 18.969 25.125 19.7209C24.6597 19.4028 24.0418 19.0124 23.2712 18.5497C22.5005 18.087 21.2865 17.5303 19.6289 16.8797C17.9714 16.229 16.7355 16.0338 15.9212 16.2941C14.6126 19.5618 14.4963 22.5115 15.5723 25.1431C13.275 27.659 12.1263 30.6376 12.1263 34.0789C12.1263 36.5369 12.4244 38.7058 13.0205 40.5855C13.6166 42.4652 14.38 43.9834 15.3105 45.1401C16.2411 46.2969 17.4116 47.2656 18.8219 48.0464C20.2323 48.8272 21.5991 49.3911 22.9222 49.7382C24.2453 50.0852 25.7357 50.3455 27.3932 50.519C26.2591 51.56 25.5467 53.0493 25.2559 54.9869C24.6452 55.276 23.9909 55.4929 23.293 55.6375C22.5951 55.7821 21.7663 55.8544 20.8066 55.8544C19.847 55.8544 18.8946 55.5435 17.9495 54.9218C17.0044 54.3 16.1975 53.3963 15.5286 52.2107C14.9761 51.2853 14.2709 50.5334 13.4131 49.9551C12.5552 49.3767 11.8355 49.0297 11.2539 48.914L10.3815 48.7839C9.77083 48.7839 9.34918 48.8489 9.11654 48.9791C8.8839 49.1092 8.8112 49.2755 8.89844 49.4779C8.98568 49.6803 9.11654 49.8828 9.29102 50.0852C9.4655 50.2876 9.65451 50.4611 9.85807 50.6057L10.1634 50.8226C10.8032 51.1118 11.4357 51.6612 12.0609 52.471C12.6861 53.2807 13.1441 54.0181 13.4349 54.6832L13.8711 55.6809C14.2491 56.7798 14.8889 57.669 15.7904 58.3486C16.6918 59.0282 17.666 59.462 18.7129 59.6499C19.7598 59.8379 20.7703 59.9391 21.7445 59.9536C22.7186 59.968 23.5256 59.9174 24.1654 59.8018L25.1686 59.6283C25.1686 60.7271 25.1759 62.0068 25.1904 63.4672C25.205 64.9275 25.2122 65.7156 25.2122 65.8312C25.2122 66.3518 25.0232 66.7855 24.6452 67.1326C24.2671 67.4796 23.6855 67.5808 22.9004 67.4362C16.1539 65.2095 10.6505 61.1971 6.3903 55.3989C2.1301 49.6008 0 43.0725 0 35.814C0 29.77 1.49761 24.196 4.49284 19.0919C7.48806 13.9878 11.552 9.94648 16.6846 6.96789C21.8172 3.9893 27.4223 2.5 33.5 2.5ZM12.6934 50.3455C12.7806 50.143 12.6788 49.9695 12.388 49.8249C12.0972 49.7382 11.9082 49.7671 11.821 49.9117C11.7337 50.1141 11.8355 50.2876 12.1263 50.4322C12.388 50.6057 12.577 50.5768 12.6934 50.3455ZM14.0456 51.8203C14.2491 51.6757 14.2201 51.4444 13.9583 51.1262C13.6675 50.866 13.4349 50.8226 13.2604 50.9961C13.0569 51.1407 13.0859 51.3721 13.3477 51.6902C13.6385 51.9793 13.8711 52.0227 14.0456 51.8203ZM15.3542 53.7723C15.6159 53.5699 15.6159 53.2951 15.3542 52.9481C15.1215 52.5722 14.8743 52.4854 14.6126 52.6878C14.3509 52.8324 14.3509 53.0927 14.6126 53.4686C14.8743 53.8446 15.1215 53.9458 15.3542 53.7723ZM17.1862 55.5941C17.4188 55.3628 17.3607 55.0881 17.0117 54.77C16.6628 54.4229 16.372 54.3796 16.1393 54.6398C15.8776 54.8712 15.9358 55.1459 16.3138 55.464C16.6628 55.811 16.9536 55.8544 17.1862 55.5941ZM19.6725 56.6786C19.7598 56.3605 19.5707 56.1291 19.1055 55.9845C18.6693 55.8689 18.393 55.9701 18.2767 56.2882C18.1604 56.6063 18.3494 56.8232 18.8438 56.9388C19.2799 57.1124 19.5562 57.0256 19.6725 56.6786ZM22.4206 56.8955C22.4206 56.5195 22.1734 56.3605 21.679 56.4183C21.2138 56.4183 20.9811 56.5774 20.9811 56.8955C20.9811 57.2714 21.2283 57.4305 21.7227 57.3726C22.1879 57.3726 22.4206 57.2136 22.4206 56.8955ZM24.9505 56.4617C24.8924 56.1436 24.6306 56.0135 24.1654 56.0713C23.7001 56.158 23.4965 56.3749 23.5547 56.722C23.6128 57.069 23.8746 57.1846 24.3398 57.069C24.8051 56.9533 25.0087 56.7509 24.9505 56.4617Z" fill="#9CA3AF"/>
<g clip-path="url(#clip0_1720_10738)">
<path d="M99.6621 35.521H91.0837C90.9774 35.5211 90.8754 35.5624 90.8002 35.6357C90.725 35.7091 90.6827 35.8085 90.6827 35.9122V40.0017C90.6827 40.2175 90.8624 40.3931 91.0835 40.3931H94.4302V45.4739C94.4302 45.4739 93.6787 45.7237 91.6013 45.7237C89.1503 45.7237 85.7263 44.8504 85.7263 37.5095C85.7263 30.1671 89.2917 29.2011 92.6388 29.2011C95.536 29.2011 96.7843 29.6984 97.5784 29.9381C97.8281 30.0126 98.0589 29.7704 98.0589 29.5544L99.0158 25.6031C99.0158 25.5021 98.9807 25.3805 98.8626 25.2979C98.5401 25.0736 96.5724 24 91.6011 24C85.8746 24 80 26.3756 80 37.7958C80 49.2164 86.7256 50.9182 92.3934 50.9182C97.086 50.9182 99.9326 48.963 99.9326 48.963C100.05 48.8998 100.063 48.74 100.063 48.6665V35.9122C100.063 35.6966 99.8832 35.521 99.6621 35.521ZM143.849 25.4294C143.849 25.2119 143.672 25.0363 143.451 25.0363H138.62C138.568 25.0365 138.515 25.0468 138.467 25.0667C138.418 25.0866 138.374 25.1156 138.337 25.1521C138.3 25.1886 138.27 25.2319 138.25 25.2795C138.23 25.3271 138.22 25.378 138.22 25.4294L138.222 34.531H130.693V25.4296C130.693 25.2121 130.515 25.0365 130.294 25.0365H125.464C125.357 25.0371 125.255 25.0788 125.181 25.1525C125.106 25.2262 125.064 25.3259 125.065 25.4296V50.0738C125.065 50.2914 125.244 50.4682 125.464 50.4682H130.294C130.515 50.4682 130.692 50.2914 130.692 50.0738V39.5326H138.221L138.208 50.0736C138.208 50.2912 138.387 50.468 138.608 50.468H143.45C143.671 50.468 143.848 50.2912 143.848 50.0736L143.849 25.4294ZM108.761 28.7244C108.761 27.0287 107.367 25.6581 105.646 25.6581C103.928 25.6581 102.532 27.0285 102.532 28.7244C102.532 30.4182 103.928 31.7925 105.646 31.7925C107.367 31.7925 108.761 30.4182 108.761 28.7244ZM108.378 44.8879V33.5122C108.378 33.4085 108.336 33.3089 108.261 33.2353C108.186 33.1617 108.085 33.1201 107.978 33.1196H103.163C102.942 33.1196 102.745 33.3418 102.745 33.5578V49.8559C102.745 50.3349 103.051 50.4773 103.447 50.4773H107.785C108.261 50.4773 108.378 50.2494 108.378 49.8481V44.8879ZM162.309 33.1198H157.516C157.296 33.1198 157.117 33.2964 157.117 33.5137V45.5977C157.117 45.5977 155.9 46.4663 154.171 46.4663C152.443 46.4663 151.985 45.7016 151.985 44.0517V33.5139C151.985 33.2964 151.806 33.1196 151.586 33.1196H146.721C146.502 33.1196 146.322 33.2964 146.322 33.5139V44.8496C146.322 49.7504 149.123 50.9495 152.977 50.9495C156.139 50.9495 158.688 49.2466 158.688 49.2466C158.688 49.2466 158.809 50.144 158.864 50.2504C158.919 50.3567 159.062 50.4637 159.217 50.4637L162.312 50.4505C162.531 50.4505 162.711 50.2735 162.711 50.0571L162.71 33.5137C162.71 33.4098 162.668 33.3099 162.593 33.2361C162.518 33.1622 162.416 33.1204 162.309 33.1198ZM173.353 46.4757C171.691 46.4263 170.563 45.6907 170.563 45.6907V37.8862C170.563 37.8862 171.676 37.2213 173.04 37.1024C174.766 36.9516 176.43 37.46 176.43 41.4748C176.43 45.7084 175.679 46.544 173.353 46.4757ZM175.244 32.5903C172.521 32.5903 170.67 33.7746 170.67 33.7746V25.4294C170.67 25.3781 170.66 25.3272 170.64 25.2796C170.62 25.2321 170.591 25.1888 170.554 25.1523C170.517 25.1158 170.473 25.0867 170.425 25.0668C170.376 25.0469 170.324 25.0365 170.271 25.0363H165.427C165.375 25.0365 165.322 25.0469 165.274 25.0668C165.225 25.0867 165.181 25.1157 165.144 25.1522C165.107 25.1887 165.078 25.232 165.058 25.2796C165.038 25.3271 165.028 25.3781 165.028 25.4294V50.0736C165.028 50.2912 165.207 50.468 165.428 50.468H168.789C168.94 50.468 169.055 50.3922 169.139 50.2588C169.223 50.1263 169.343 49.1224 169.343 49.1224C169.343 49.1224 171.324 50.9526 175.073 50.9526C179.475 50.9526 182 48.7755 182 41.1792C182 33.5829 177.968 32.5903 175.244 32.5903ZM122.28 33.0771H118.657L118.651 28.4099C118.651 28.2334 118.558 28.145 118.348 28.145H113.411C113.219 28.145 113.116 28.2273 113.116 28.4072V33.2303C113.116 33.2303 110.642 33.8127 110.474 33.8597C110.391 33.8832 110.317 33.9326 110.265 34.0003C110.213 34.0681 110.185 34.1506 110.185 34.2353V37.2661C110.185 37.4841 110.363 37.6599 110.584 37.6599H113.116V44.951C113.116 50.3666 117.012 50.8986 119.641 50.8986C120.842 50.8986 122.279 50.5224 122.516 50.4371C122.66 50.3856 122.743 50.2409 122.743 50.0836L122.747 46.7495C122.747 46.5322 122.559 46.3562 122.347 46.3562C122.135 46.3562 121.596 46.4399 121.039 46.4399C119.26 46.4399 118.657 45.633 118.657 44.5888L118.657 37.6601H122.28C122.333 37.6599 122.385 37.6495 122.434 37.6296C122.482 37.6097 122.526 37.5806 122.564 37.544C122.601 37.5074 122.63 37.464 122.65 37.4163C122.67 37.3686 122.68 37.3176 122.68 37.2661V33.47C122.68 33.2525 122.501 33.0771 122.28 33.0771Z" fill="#9CA3AF"/>
</g>
<defs>
<clipPath id="clip0_1720_10738">
<rect width="102" height="27" fill="white" transform="translate(80 24)"/>
</clipPath>
</defs>
</svg>
