<svg width="171" height="130" viewBox="0 0 171 130" fill="none" xmlns="http://www.w3.org/2000/svg">
<path d="M89.7533 61.5634C89.735 61.5532 89.7174 61.5415 89.7008 61.5285L88.7368 60.7746C87.5718 59.8637 87.2786 58.2221 88.0563 56.9642L90.1883 53.2277C90.5614 52.5739 90.7479 52.247 90.9582 51.9353C91.1686 51.6237 91.4019 51.3284 91.8687 50.7379L95.1014 46.6478L97.4141 43.8295C98.4203 42.6033 99.7936 41.7325 101.332 41.3453C102.725 40.9946 104.19 41.0566 105.548 41.5236L105.988 41.6748C106.937 42.0011 107.809 42.5177 108.551 43.1931L108.975 43.5789C110.251 44.7394 110.973 46.3868 110.964 48.1111C110.961 48.5345 110.915 48.9564 110.825 49.3701L110.557 50.6012C110.466 51.0188 110.318 51.4221 110.119 51.7999C109.539 52.8962 108.55 53.7193 107.367 54.0905L106.158 54.4698L95.509 56.2683C94.7704 56.393 94.0732 56.695 93.4769 57.1483L92.1992 58.1199C91.0275 59.0108 90.7229 60.6453 91.4951 61.8984L91.6935 62.2203C91.7023 62.2347 91.7132 62.2478 91.7256 62.2591C91.8844 62.4036 91.7033 62.6549 91.5161 62.55L89.7533 61.5634Z" fill="white"/>
<path d="M146.831 17.6539C147.735 17.1183 148.901 17.3875 149.479 18.2655C150.057 19.1434 149.844 20.3206 148.994 20.9398L118.629 43.0733L111.933 46.6617C110.528 47.4151 108.779 46.9719 107.902 45.6397C107.025 44.3076 107.309 42.5263 108.556 41.5327L114.499 36.8002L146.831 17.6539Z" fill="white"/>
<rect x="77.1992" y="19.0488" width="7.54945" height="35.6813" rx="3.5" transform="rotate(-90 77.1992 19.0488)" stroke="white" stroke-width="3"/>
<path d="M102.953 89.1205H84.9062M146.909 89.1205H163.887C166.648 89.1205 168.887 86.8819 168.887 84.1204V16.7578C168.887 13.9964 166.648 11.7578 163.887 11.7578H29.7109C26.9495 11.7578 24.7109 13.9964 24.7109 16.7578V23.1864V31.0985" stroke="white" stroke-width="4" stroke-linecap="round"/>
<path d="M98.5559 108.462H77.457L79.7521 101.358C80.0659 100.387 80.0749 99.3424 79.7779 98.3659L78.9062 95.5" stroke="white" stroke-width="4" stroke-linecap="round"/>
<rect x="105.332" y="128.061" width="69.0879" height="35.6813" rx="3.5" transform="rotate(-90 105.332 128.061)" stroke="white" stroke-width="3"/>
<rect x="78.168" y="90.8066" width="76.0571" height="54.5784" rx="3" transform="rotate(-180 78.168 90.8066)" stroke="white" stroke-width="4"/>
<rect x="73.9141" y="64" width="32" height="23" rx="4" transform="rotate(-180 73.9141 64)" stroke="white" stroke-width="2"/>
<rect x="136.914" y="84" width="28" height="20" rx="4" transform="rotate(-180 136.914 84)" stroke="white" stroke-width="2"/>
<rect x="136.914" y="108" width="28" height="20" rx="4" transform="rotate(-180 136.914 108)" stroke="white" stroke-width="2"/>
<rect x="136.914" y="128" width="28" height="16" rx="4" transform="rotate(-180 136.914 128)" stroke="white" stroke-width="2"/>
<rect x="136.914" y="84" width="28" height="20" rx="4" transform="rotate(-180 136.914 84)" stroke="white" stroke-width="2"/>
<path d="M112.914 69H133.914" stroke="white" stroke-width="3" stroke-linecap="round"/>
<path d="M115.914 74L133.914 74" stroke="white" stroke-width="3" stroke-linecap="round"/>
<path d="M120.914 79L133.914 79" stroke="white" stroke-width="3" stroke-linecap="round"/>
<path d="M9.91406 49H30.9141" stroke="white" stroke-width="3" stroke-linecap="round"/>
<path d="M12.9141 54L30.9141 54" stroke="white" stroke-width="3" stroke-linecap="round"/>
<path d="M17.9141 59L30.9141 59" stroke="white" stroke-width="3" stroke-linecap="round"/>
<path d="M47.9141 72H68.9141" stroke="white" stroke-width="3" stroke-linecap="round"/>
<path d="M50.9141 77L68.9141 77" stroke="white" stroke-width="3" stroke-linecap="round"/>
<path d="M55.9141 82L68.9141 82" stroke="white" stroke-width="3" stroke-linecap="round"/>
<mask id="path-22-inside-1_1825_8215" fill="white">
<path fill-rule="evenodd" clip-rule="evenodd" d="M31.1673 68.289C31.2547 69.5879 32.3785 70.57 33.6773 70.4826C34.9762 70.3953 35.9584 69.2715 35.871 67.9726C35.7836 66.6737 34.6599 65.6916 33.361 65.779C32.5121 65.8361 31.7985 66.3359 31.4303 67.0379L29.1352 65.6525L28.8544 65.483L28.5871 65.6731L24.1409 68.8346L24.0384 68.9075L23.9825 69.0203L23.1662 70.6699L23.0956 69.6194L22.9865 67.9985C24.0304 67.6984 24.7607 66.7027 24.6849 65.575C24.5975 64.2761 23.4738 63.294 22.1749 63.3814C20.876 63.4687 19.8939 64.5925 19.9812 65.8914C20.0571 67.0191 20.9141 67.908 21.9888 68.0656L22.0978 69.6865L22.2477 71.9144L16.8992 68.3465C16.9479 68.13 16.9666 67.9029 16.9509 67.6702C16.8635 66.3713 15.7398 65.3892 14.4409 65.4765C13.142 65.5639 12.1599 66.6876 12.2472 67.9865C12.3346 69.2854 13.4584 70.2675 14.7572 70.1802C15.4611 70.1328 16.0719 69.7812 16.47 69.2622L22.3323 73.173L22.3485 73.414L18.1545 78.7264L14.3211 76.2349C14.3465 76.068 14.3542 75.8959 14.3424 75.7205C14.255 74.4216 13.1313 73.4395 11.8324 73.5269C10.5335 73.6142 9.55137 74.738 9.63873 76.0369C9.72609 77.3357 10.8499 78.3179 12.1487 78.2305C12.9079 78.1795 13.5589 77.7744 13.9513 77.1872L17.9919 79.8134L18.3743 80.0619L18.6569 79.704L21.6922 75.8592L20.2812 80.8349C20.2539 80.8358 20.2265 80.8372 20.1991 80.839C18.9002 80.9264 17.9181 82.0502 18.0054 83.349C18.0928 84.6479 19.2166 85.63 20.5154 85.5427C21.8143 85.4553 22.7964 84.3316 22.7091 83.0327C22.6472 82.1125 22.0651 81.3512 21.2691 81.0167L23.0642 74.6863L26.3556 79.121L26.5183 79.3402L26.7907 79.3218L30.3355 79.0834C30.3305 79.1776 30.3311 79.2732 30.3376 79.3696C30.425 80.6685 31.5487 81.6507 32.8476 81.5633C34.1465 81.4759 35.1286 80.3522 35.0413 79.0533C34.9539 77.7544 33.8301 76.7723 32.5313 76.8596C31.7057 76.9152 31.008 77.3894 30.6317 78.0612L26.9959 78.3058L23.3493 73.3926L23.2997 72.6548L24.823 69.5766L28.8993 66.6781L31.1634 68.0449C31.1606 68.1254 31.1618 68.2069 31.1673 68.289Z"/>
</mask>
<path fill-rule="evenodd" clip-rule="evenodd" d="M31.1673 68.289C31.2547 69.5879 32.3785 70.57 33.6773 70.4826C34.9762 70.3953 35.9584 69.2715 35.871 67.9726C35.7836 66.6737 34.6599 65.6916 33.361 65.779C32.5121 65.8361 31.7985 66.3359 31.4303 67.0379L29.1352 65.6525L28.8544 65.483L28.5871 65.6731L24.1409 68.8346L24.0384 68.9075L23.9825 69.0203L23.1662 70.6699L23.0956 69.6194L22.9865 67.9985C24.0304 67.6984 24.7607 66.7027 24.6849 65.575C24.5975 64.2761 23.4738 63.294 22.1749 63.3814C20.876 63.4687 19.8939 64.5925 19.9812 65.8914C20.0571 67.0191 20.9141 67.908 21.9888 68.0656L22.0978 69.6865L22.2477 71.9144L16.8992 68.3465C16.9479 68.13 16.9666 67.9029 16.9509 67.6702C16.8635 66.3713 15.7398 65.3892 14.4409 65.4765C13.142 65.5639 12.1599 66.6876 12.2472 67.9865C12.3346 69.2854 13.4584 70.2675 14.7572 70.1802C15.4611 70.1328 16.0719 69.7812 16.47 69.2622L22.3323 73.173L22.3485 73.414L18.1545 78.7264L14.3211 76.2349C14.3465 76.068 14.3542 75.8959 14.3424 75.7205C14.255 74.4216 13.1313 73.4395 11.8324 73.5269C10.5335 73.6142 9.55137 74.738 9.63873 76.0369C9.72609 77.3357 10.8499 78.3179 12.1487 78.2305C12.9079 78.1795 13.5589 77.7744 13.9513 77.1872L17.9919 79.8134L18.3743 80.0619L18.6569 79.704L21.6922 75.8592L20.2812 80.8349C20.2539 80.8358 20.2265 80.8372 20.1991 80.839C18.9002 80.9264 17.9181 82.0502 18.0054 83.349C18.0928 84.6479 19.2166 85.63 20.5154 85.5427C21.8143 85.4553 22.7964 84.3316 22.7091 83.0327C22.6472 82.1125 22.0651 81.3512 21.2691 81.0167L23.0642 74.6863L26.3556 79.121L26.5183 79.3402L26.7907 79.3218L30.3355 79.0834C30.3305 79.1776 30.3311 79.2732 30.3376 79.3696C30.425 80.6685 31.5487 81.6507 32.8476 81.5633C34.1465 81.4759 35.1286 80.3522 35.0413 79.0533C34.9539 77.7544 33.8301 76.7723 32.5313 76.8596C31.7057 76.9152 31.008 77.3894 30.6317 78.0612L26.9959 78.3058L23.3493 73.3926L23.2997 72.6548L24.823 69.5766L28.8993 66.6781L31.1634 68.0449C31.1606 68.1254 31.1618 68.2069 31.1673 68.289Z" fill="white"/>
<path d="M31.4303 67.0379L30.9135 67.8941L31.8227 68.4429L32.3159 67.5024L31.4303 67.0379ZM29.1352 65.6525L28.6184 66.5086L28.6184 66.5086L29.1352 65.6525ZM28.8544 65.483L29.3712 64.6269L28.8096 64.2879L28.2749 64.668L28.8544 65.483ZM28.5871 65.6731L28.0076 64.8581L28.0076 64.8581L28.5871 65.6731ZM24.1409 68.8346L23.5614 68.0196L23.5614 68.0196L24.1409 68.8346ZM24.0384 68.9075L23.4589 68.0926L23.2537 68.2384L23.1421 68.464L24.0384 68.9075ZM23.9825 69.0203L23.0863 68.5768L23.0863 68.5768L23.9825 69.0203ZM23.1662 70.6699L22.1685 70.737L22.4174 74.4378L24.0625 71.1134L23.1662 70.6699ZM22.9865 67.9985L22.7103 67.0374L21.9346 67.2603L21.9888 68.0656L22.9865 67.9985ZM21.9888 68.0656L22.9865 67.9985L22.9324 67.1932L22.1338 67.0761L21.9888 68.0656ZM22.0978 69.6865L21.1001 69.7536L22.0978 69.6865ZM22.2477 71.9144L21.6927 72.7463L23.3816 73.873L23.2454 71.8473L22.2477 71.9144ZM16.8992 68.3465L15.9236 68.1271L15.7729 68.7972L16.3443 69.1784L16.8992 68.3465ZM16.47 69.2622L17.0249 68.4303L16.2462 67.9109L15.6765 68.6536L16.47 69.2622ZM22.3323 73.173L23.33 73.1058L23.297 72.6144L22.8872 72.3411L22.3323 73.173ZM22.3485 73.414L23.1334 74.0336L23.3721 73.7313L23.3463 73.3469L22.3485 73.414ZM18.1545 78.7264L17.6096 79.5649L18.3743 80.0619L18.9394 79.3461L18.1545 78.7264ZM14.3211 76.2349L13.3325 76.0847L13.2357 76.722L13.7762 77.0733L14.3211 76.2349ZM13.9513 77.1872L14.4963 76.3487L13.6685 75.8107L13.1199 76.6315L13.9513 77.1872ZM17.9919 79.8134L17.447 80.6519L17.447 80.6519L17.9919 79.8134ZM18.3743 80.0619L17.8293 80.9004L18.594 81.3974L19.1592 80.6816L18.3743 80.0619ZM18.6569 79.704L17.872 79.0843L17.872 79.0843L18.6569 79.704ZM21.6922 75.8592L22.6542 76.132L20.9073 75.2396L21.6922 75.8592ZM20.2812 80.8349L20.3141 81.8344L21.044 81.8103L21.2432 81.1077L20.2812 80.8349ZM21.2691 81.0167L20.307 80.7438L20.0655 81.5955L20.8816 81.9385L21.2691 81.0167ZM23.0642 74.6863L23.8672 74.0903L22.6564 72.459L22.1022 74.4135L23.0642 74.6863ZM26.3556 79.121L27.1586 78.525L27.1586 78.525L26.3556 79.121ZM26.5183 79.3402L25.7153 79.9361L26.0407 80.3745L26.5854 80.3379L26.5183 79.3402ZM26.7907 79.3218L26.8578 80.3196L26.7907 79.3218ZM30.3355 79.0834L31.3341 79.1365L31.394 78.01L30.2684 78.0857L30.3355 79.0834ZM30.6317 78.0612L30.6988 79.059L31.2393 79.0226L31.5041 78.55L30.6317 78.0612ZM26.9959 78.3058L26.193 78.9018L26.5183 79.3402L27.0631 79.3035L26.9959 78.3058ZM23.3493 73.3926L22.3516 73.4597L22.3713 73.7527L22.5463 73.9885L23.3493 73.3926ZM23.2997 72.6548L22.4034 72.2113L22.2839 72.4529L22.302 72.7219L23.2997 72.6548ZM24.823 69.5766L24.2435 68.7617L24.0384 68.9075L23.9267 69.1331L24.823 69.5766ZM28.8993 66.6781L29.416 65.822L28.8544 65.483L28.3198 65.8632L28.8993 66.6781ZM31.1634 68.0449L32.1628 68.0801L32.1835 67.4926L31.6802 67.1888L31.1634 68.0449ZM33.6102 69.4849C32.8624 69.5352 32.2154 68.9697 32.1651 68.2219L30.1696 68.3561C30.294 70.206 31.8945 71.6048 33.7444 71.4804L33.6102 69.4849ZM34.8732 68.0397C34.9235 68.7876 34.3581 69.4346 33.6102 69.4849L33.7444 71.4804C35.5944 71.356 36.9932 69.7554 36.8687 67.9055L34.8732 68.0397ZM33.4281 66.7767C34.1759 66.7264 34.8229 67.2919 34.8732 68.0397L36.8687 67.9055C36.7443 66.0556 35.1438 64.6568 33.2939 64.7812L33.4281 66.7767ZM32.3159 67.5024C32.5293 67.0954 32.9405 66.8095 33.4281 66.7767L33.2939 64.7812C32.0837 64.8626 31.0676 65.5763 30.5447 66.5735L32.3159 67.5024ZM28.6184 66.5086L30.9135 67.8941L31.9471 66.1818L29.652 64.7964L28.6184 66.5086ZM28.3376 66.3391L28.6184 66.5086L29.652 64.7964L29.3712 64.6269L28.3376 66.3391ZM29.1666 66.4881L29.4339 66.298L28.2749 64.668L28.0076 64.8581L29.1666 66.4881ZM24.7204 69.6496L29.1666 66.4881L28.0076 64.8581L23.5614 68.0196L24.7204 69.6496ZM24.6179 69.7225L24.7204 69.6496L23.5614 68.0196L23.4589 68.0926L24.6179 69.7225ZM24.8788 69.4639L24.9346 69.3511L23.1421 68.464L23.0863 68.5768L24.8788 69.4639ZM24.0625 71.1134L24.8788 69.4639L23.0863 68.5768L22.27 70.2264L24.0625 71.1134ZM22.0978 69.6865L22.1685 70.737L24.164 70.6028L24.0933 69.5523L22.0978 69.6865ZM21.9888 68.0656L22.0978 69.6865L24.0933 69.5523L23.9843 67.9314L21.9888 68.0656ZM23.6871 65.6421C23.7307 66.2902 23.311 66.8647 22.7103 67.0374L23.2628 68.9595C24.7498 68.5322 25.7907 67.1153 25.6826 65.5079L23.6871 65.6421ZM22.242 64.3791C22.9898 64.3288 23.6368 64.8943 23.6871 65.6421L25.6826 65.5079C25.5582 63.658 23.9577 62.2592 22.1078 62.3836L22.242 64.3791ZM20.979 65.8243C20.9287 65.0764 21.4941 64.4294 22.242 64.3791L22.1078 62.3836C20.2578 62.508 18.8591 64.1086 18.9835 65.9585L20.979 65.8243ZM22.1338 67.0761C21.5154 66.9855 21.0226 66.4723 20.979 65.8243L18.9835 65.9585C19.0916 67.5658 20.3129 68.8306 21.8437 69.055L22.1338 67.0761ZM23.0956 69.6194L22.9865 67.9985L20.991 68.1327L21.1001 69.7536L23.0956 69.6194ZM23.2454 71.8473L23.0956 69.6194L21.1001 69.7536L21.2499 71.9815L23.2454 71.8473ZM16.3443 69.1784L21.6927 72.7463L22.8026 71.0825L17.4541 67.5146L16.3443 69.1784ZM15.9532 67.7373C15.9623 67.8729 15.9513 68.0035 15.9236 68.1271L17.8748 68.5658C17.9444 68.2564 17.9708 67.9328 17.9486 67.6031L15.9532 67.7373ZM14.508 66.4743C15.2558 66.424 15.9029 66.9894 15.9532 67.7373L17.9486 67.6031C17.8242 65.7531 16.2237 64.3544 14.3738 64.4788L14.508 66.4743ZM13.245 67.9194C13.1947 67.1716 13.7602 66.5246 14.508 66.4743L14.3738 64.4788C12.5239 64.6032 11.1251 66.2037 11.2495 68.0536L13.245 67.9194ZM14.6901 69.1824C13.9423 69.2327 13.2953 68.6673 13.245 67.9194L11.2495 68.0536C11.3739 69.9036 12.9744 71.3023 14.8244 71.1779L14.6901 69.1824ZM15.6765 68.6536C15.446 68.9542 15.0952 69.1552 14.6901 69.1824L14.8244 71.1779C15.8269 71.1105 16.6979 70.6082 17.2634 69.8708L15.6765 68.6536ZM22.8872 72.3411L17.0249 68.4303L15.915 70.0941L21.7774 74.0048L22.8872 72.3411ZM23.3463 73.3469L23.33 73.1058L21.3346 73.2401L21.3508 73.4811L23.3463 73.3469ZM18.9394 79.3461L23.1334 74.0336L21.5636 72.7944L17.3697 78.1068L18.9394 79.3461ZM13.7762 77.0733L17.6096 79.5649L18.6995 77.888L14.8661 75.3964L13.7762 77.0733ZM13.3446 75.7876C13.3515 75.89 13.347 75.9893 13.3325 76.0847L15.3098 76.385C15.346 76.1468 15.3568 75.9018 15.3401 75.6534L13.3446 75.7876ZM11.8995 74.5246C12.6473 74.4743 13.2943 75.0398 13.3446 75.7876L15.3401 75.6534C15.2157 73.8035 13.6152 72.4047 11.7653 72.5291L11.8995 74.5246ZM10.6365 75.9698C10.5862 75.2219 11.1516 74.5749 11.8995 74.5246L11.7653 72.5291C9.91536 72.6535 8.51656 74.2541 8.64098 76.104L10.6365 75.9698ZM12.0816 77.2328C11.3338 77.2831 10.6868 76.7176 10.6365 75.9698L8.64098 76.104C8.76541 77.9539 10.3659 79.3527 12.2158 79.2283L12.0816 77.2328ZM13.1199 76.6315C12.8924 76.9718 12.5182 77.2034 12.0816 77.2328L12.2158 79.2283C13.2976 79.1555 14.2253 78.5769 14.7827 77.7428L13.1199 76.6315ZM18.5369 78.9749L14.4963 76.3487L13.4064 78.0256L17.447 80.6519L18.5369 78.9749ZM18.9193 79.2235L18.5369 78.9749L17.447 80.6519L17.8293 80.9004L18.9193 79.2235ZM17.872 79.0843L17.5894 79.4423L19.1592 80.6816L19.4418 80.3236L17.872 79.0843ZM20.9073 75.2396L17.872 79.0843L19.4418 80.3236L22.4771 76.4788L20.9073 75.2396ZM21.2432 81.1077L22.6542 76.132L20.7301 75.5864L19.3191 80.5621L21.2432 81.1077ZM20.2662 81.8368C20.2822 81.8357 20.2982 81.8349 20.3141 81.8344L20.2483 79.8355C20.2096 79.8367 20.1708 79.8387 20.132 79.8413L20.2662 81.8368ZM19.0032 83.2819C18.9529 82.5341 19.5183 81.8871 20.2662 81.8368L20.132 79.8413C18.282 79.9657 16.8833 81.5662 17.0077 83.4161L19.0032 83.2819ZM20.4483 84.5449C19.7005 84.5952 19.0535 84.0298 19.0032 83.2819L17.0077 83.4161C17.1321 85.2661 18.7326 86.6649 20.5825 86.5404L20.4483 84.5449ZM21.7113 83.0998C21.7616 83.8476 21.1962 84.4946 20.4483 84.5449L20.5825 86.5404C22.4325 86.416 23.8313 84.8155 23.7068 82.9656L21.7113 83.0998ZM20.8816 81.9385C21.3424 82.1322 21.6758 82.5714 21.7113 83.0998L23.7068 82.9656C23.6186 81.6535 22.7878 80.5702 21.6565 80.0948L20.8816 81.9385ZM22.1022 74.4135L20.307 80.7438L22.2311 81.2895L24.0263 74.9591L22.1022 74.4135ZM27.1586 78.525L23.8672 74.0903L22.2612 75.2823L25.5526 79.7169L27.1586 78.525ZM27.3213 78.7442L27.1586 78.525L25.5526 79.7169L25.7153 79.9361L27.3213 78.7442ZM26.7236 78.3241L26.4512 78.3424L26.5854 80.3379L26.8578 80.3196L26.7236 78.3241ZM30.2684 78.0857L26.7236 78.3241L26.8578 80.3196L30.4026 80.0812L30.2684 78.0857ZM31.3354 79.3025C31.3316 79.2461 31.3312 79.1907 31.3341 79.1365L29.3369 79.0304C29.3298 79.1645 29.3307 79.3002 29.3399 79.4367L31.3354 79.3025ZM32.7805 80.5655C32.0327 80.6158 31.3857 80.0504 31.3354 79.3025L29.3399 79.4367C29.4643 81.2867 31.0648 82.6855 32.9147 82.561L32.7805 80.5655ZM34.0435 79.1204C34.0938 79.8682 33.5284 80.5153 32.7805 80.5655L32.9147 82.561C34.7646 82.4366 36.1634 80.8361 36.039 78.9862L34.0435 79.1204ZM32.5984 77.8574C33.3462 77.8071 33.9932 78.3726 34.0435 79.1204L36.039 78.9862C35.9146 77.1363 34.3141 75.7375 32.4642 75.8619L32.5984 77.8574ZM31.5041 78.55C31.7223 78.1605 32.124 77.8893 32.5984 77.8574L32.4642 75.8619C31.2873 75.941 30.2938 76.6184 29.7592 77.5725L31.5041 78.55ZM27.0631 79.3035L30.6988 79.059L30.5646 77.0635L26.9288 77.308L27.0631 79.3035ZM22.5463 73.9885L26.193 78.9018L27.7989 77.7098L24.1523 72.7966L22.5463 73.9885ZM22.302 72.7219L22.3516 73.4597L24.3471 73.3255L24.2975 72.5877L22.302 72.7219ZM23.9267 69.1331L22.4034 72.2113L24.196 73.0983L25.7192 70.0202L23.9267 69.1331ZM28.3198 65.8632L24.2435 68.7617L25.4025 70.3916L29.4788 67.4931L28.3198 65.8632ZM31.6802 67.1888L29.416 65.822L28.3825 67.5343L30.6466 68.901L31.6802 67.1888ZM32.1651 68.2219C32.1618 68.1739 32.1611 68.1266 32.1628 68.0801L30.164 68.0097C30.16 68.1242 30.1618 68.2398 30.1696 68.3561L32.1651 68.2219Z" fill="white" mask="url(#path-22-inside-1_1825_8215)"/>
</svg>
