<svg width="199" height="107" viewBox="0 0 199 107" fill="none" xmlns="http://www.w3.org/2000/svg">
<path d="M5 2H193.996C195.653 2 196.996 3.34314 196.996 5V101.779C196.996 103.435 195.653 104.779 193.996 104.779H92.2139H91.0044H5C3.34315 104.779 2 103.435 2 101.779V5C2 3.34315 3.34315 2 5 2Z" stroke="white" stroke-width="4" stroke-linecap="round"/>
<path d="M3.11697 14.5586H142.061M194.398 14.5586H178.822" stroke="white" stroke-width="4" stroke-linecap="round"/>
<circle cx="26.7002" cy="8.52639" r="2.42679" fill="white"/>
<circle cx="19.419" cy="8.52639" r="2.42679" fill="white"/>
<circle cx="33.9815" cy="8.52639" r="2.42679" fill="white"/>
<rect x="191.719" y="66.2578" width="184.4" height="46.2021" rx="4" transform="rotate(-180 191.719 66.2578)" stroke="white" stroke-width="2"/>
<path d="M110.906 32.4004H178.197" stroke="white" stroke-width="3" stroke-linecap="round"/>
<path d="M122.117 38.6309L178.193 38.6309" stroke="white" stroke-width="3" stroke-linecap="round"/>
<path d="M135.828 44.8613L178.197 44.8613" stroke="white" stroke-width="3" stroke-linecap="round"/>
<path d="M139.57 8.72266H150.786" stroke="white" stroke-width="2" stroke-linecap="round"/>
<path d="M154.523 8.72266H165.739" stroke="white" stroke-width="2" stroke-linecap="round"/>
<path d="M170.719 8.72266H181.934" stroke="white" stroke-width="2" stroke-linecap="round"/>
<path d="M19.9375 90.9668L62.306 90.9668" stroke="white" stroke-width="3" stroke-linecap="round"/>
<path d="M19.9375 97.1992L62.306 97.1992" stroke="white" stroke-width="3" stroke-linecap="round"/>
<path d="M76.0156 90.9668L118.384 90.9668" stroke="white" stroke-width="3" stroke-linecap="round"/>
<path d="M76.0156 97.1992L118.384 97.1992" stroke="white" stroke-width="3" stroke-linecap="round"/>
<path d="M132.094 90.9668L174.462 90.9668" stroke="white" stroke-width="3" stroke-linecap="round"/>
<path d="M132.094 97.1992L174.462 97.1992" stroke="white" stroke-width="3" stroke-linecap="round"/>
<rect x="18.4375" y="84.418" width="11.146" height="46.2021" rx="1" transform="rotate(-90 18.4375 84.418)" stroke="white" stroke-width="2"/>
<rect x="74.5078" y="84.418" width="11.146" height="46.2021" rx="1" transform="rotate(-90 74.5078 84.418)" stroke="white" stroke-width="2"/>
<rect x="130.586" y="84.418" width="11.146" height="46.2021" rx="1" transform="rotate(-90 130.586 84.418)" stroke="white" stroke-width="2"/>
<path d="M20.4717 36.252H18.1865V27.5312H20.4717V28.376H19.2168V35.3975H20.4717V36.252ZM23.665 27.5312C24.2803 27.5312 24.7881 27.6061 25.1885 27.7559C25.5921 27.9056 25.8916 28.1335 26.0869 28.4395C26.2855 28.7454 26.3848 29.1344 26.3848 29.6064C26.3848 29.958 26.3197 30.2575 26.1895 30.5049C26.0592 30.7523 25.8883 30.9574 25.6768 31.1201C25.4652 31.2829 25.2389 31.4131 24.998 31.5107L27.0244 34.6699H25.7012L23.9775 31.8086H22.8301V34.6699H21.6582V27.5312H23.665ZM23.5869 28.5078H22.8301V30.8418H23.6406C24.1842 30.8418 24.5781 30.7409 24.8223 30.5391C25.0697 30.3372 25.1934 30.0394 25.1934 29.6455C25.1934 29.2321 25.0615 28.9391 24.7979 28.7666C24.5374 28.5941 24.1338 28.5078 23.5869 28.5078ZM27.3564 35.3975H28.6113V28.376H27.3564V27.5312H29.6465V36.252H27.3564V35.3975Z" fill="white"/>
<path d="M22.4883 46.4336C22.4883 46.8568 22.3841 47.2214 22.1758 47.5273C21.9707 47.8333 21.6745 48.0677 21.2871 48.2305C20.903 48.3932 20.444 48.4746 19.9102 48.4746C19.6497 48.4746 19.4007 48.46 19.1631 48.4307C18.9255 48.4014 18.7008 48.359 18.4893 48.3037C18.2809 48.2451 18.0905 48.1751 17.918 48.0938V46.9902C18.2077 47.1172 18.5316 47.2327 18.8896 47.3369C19.2477 47.4378 19.6123 47.4883 19.9834 47.4883C20.2861 47.4883 20.5368 47.4492 20.7354 47.3711C20.9372 47.2897 21.0869 47.1758 21.1846 47.0293C21.2822 46.8796 21.3311 46.7054 21.3311 46.5068C21.3311 46.2952 21.2741 46.1162 21.1602 45.9697C21.0462 45.8232 20.8737 45.6898 20.6426 45.5693C20.4147 45.4456 20.1283 45.3138 19.7832 45.1738C19.5488 45.0794 19.3242 44.972 19.1094 44.8516C18.8978 44.7311 18.709 44.5895 18.543 44.4268C18.377 44.264 18.2451 44.0719 18.1475 43.8506C18.0531 43.626 18.0059 43.3623 18.0059 43.0596C18.0059 42.6559 18.1019 42.3109 18.2939 42.0244C18.4893 41.738 18.7627 41.5182 19.1143 41.3652C19.4691 41.2122 19.8825 41.1357 20.3545 41.1357C20.7288 41.1357 21.0804 41.1748 21.4092 41.2529C21.7412 41.3311 22.0667 41.4417 22.3857 41.585L22.0146 42.5273C21.7217 42.4069 21.4368 42.3109 21.1602 42.2393C20.8867 42.1676 20.6068 42.1318 20.3203 42.1318C20.0729 42.1318 19.863 42.1693 19.6904 42.2441C19.5179 42.319 19.3861 42.4248 19.2949 42.5615C19.207 42.695 19.1631 42.8545 19.1631 43.04C19.1631 43.2484 19.2135 43.4242 19.3145 43.5674C19.4186 43.7074 19.5781 43.8359 19.793 43.9531C20.0111 44.0703 20.291 44.2005 20.6328 44.3438C21.0267 44.5065 21.3604 44.6774 21.6338 44.8564C21.9105 45.0355 22.1221 45.2503 22.2686 45.501C22.415 45.7484 22.4883 46.0592 22.4883 46.4336ZM24.8955 42.9717V48.377H23.748V42.9717H24.8955ZM24.3291 40.9014C24.5049 40.9014 24.6562 40.9486 24.7832 41.043C24.9134 41.1374 24.9785 41.3001 24.9785 41.5312C24.9785 41.7591 24.9134 41.9219 24.7832 42.0195C24.6562 42.1139 24.5049 42.1611 24.3291 42.1611C24.1468 42.1611 23.9922 42.1139 23.8652 42.0195C23.7415 41.9219 23.6797 41.7591 23.6797 41.5312C23.6797 41.3001 23.7415 41.1374 23.8652 41.043C23.9922 40.9486 24.1468 40.9014 24.3291 40.9014ZM28.3574 48.4746C27.7129 48.4746 27.1953 48.2402 26.8047 47.7715C26.4173 47.2995 26.2236 46.6045 26.2236 45.6865C26.2236 44.7588 26.4206 44.0573 26.8145 43.582C27.2116 43.1068 27.734 42.8691 28.3818 42.8691C28.6553 42.8691 28.8945 42.9066 29.0996 42.9814C29.3047 43.0531 29.4805 43.1507 29.627 43.2744C29.7767 43.3981 29.9036 43.5365 30.0078 43.6895H30.0615C30.0452 43.5885 30.0257 43.4437 30.0029 43.2549C29.9834 43.0628 29.9736 42.8854 29.9736 42.7227V40.7793H31.126V48.377H30.2275L30.0225 47.6396H29.9736C29.876 47.7959 29.7523 47.9375 29.6025 48.0645C29.4561 48.1882 29.2803 48.2874 29.0752 48.3623C28.8734 48.4372 28.6341 48.4746 28.3574 48.4746ZM28.6797 47.542C29.1712 47.542 29.5179 47.4004 29.7197 47.1172C29.9215 46.834 30.0257 46.4092 30.0322 45.8428V45.6914C30.0322 45.0859 29.9346 44.6221 29.7393 44.2998C29.5439 43.9743 29.1875 43.8115 28.6699 43.8115C28.2565 43.8115 27.9408 43.9792 27.7227 44.3145C27.5078 44.6465 27.4004 45.1104 27.4004 45.7061C27.4004 46.3018 27.5078 46.7575 27.7227 47.0732C27.9408 47.3857 28.2598 47.542 28.6797 47.542ZM34.9248 42.8691C35.4066 42.8691 35.82 42.9684 36.165 43.167C36.5101 43.3656 36.7754 43.6471 36.9609 44.0117C37.1465 44.3763 37.2393 44.8125 37.2393 45.3203V45.9355H33.6309C33.6439 46.4596 33.7839 46.8633 34.0508 47.1465C34.321 47.4297 34.6986 47.5713 35.1836 47.5713C35.5286 47.5713 35.8379 47.5387 36.1113 47.4736C36.388 47.4053 36.6729 47.306 36.9658 47.1758V48.1084C36.6956 48.2354 36.4206 48.3281 36.1406 48.3867C35.8607 48.4453 35.5254 48.4746 35.1348 48.4746C34.6042 48.4746 34.137 48.3721 33.7334 48.167C33.333 47.9587 33.0189 47.6494 32.791 47.2393C32.5664 46.8291 32.4541 46.3197 32.4541 45.7109C32.4541 45.1055 32.5566 44.5911 32.7617 44.168C32.9668 43.7448 33.2549 43.4225 33.626 43.2012C33.9971 42.9798 34.43 42.8691 34.9248 42.8691ZM34.9248 43.7334C34.5635 43.7334 34.2705 43.8506 34.0459 44.085C33.8245 44.3193 33.6943 44.6628 33.6553 45.1152H36.1162C36.113 44.8451 36.0674 44.6058 35.9795 44.3975C35.8949 44.1891 35.7646 44.0264 35.5889 43.9092C35.4163 43.792 35.195 43.7334 34.9248 43.7334ZM38.3672 47.7715C38.3672 47.5046 38.4355 47.3174 38.5723 47.21C38.7122 47.0993 38.8815 47.0439 39.0801 47.0439C39.2786 47.0439 39.4479 47.0993 39.5879 47.21C39.7311 47.3174 39.8027 47.5046 39.8027 47.7715C39.8027 48.0319 39.7311 48.2207 39.5879 48.3379C39.4479 48.4518 39.2786 48.5088 39.0801 48.5088C38.8815 48.5088 38.7122 48.4518 38.5723 48.3379C38.4355 48.2207 38.3672 48.0319 38.3672 47.7715Z" fill="white"/>
</svg>
