<svg width="185" height="101" viewBox="0 0 185 101" fill="none" xmlns="http://www.w3.org/2000/svg">
<path d="M30.2952 81.802L29.4173 82.2809L30.622 84.4895L31.2623 82.0565L30.2952 81.802ZM33.1052 71.1241L34.0131 70.7051L32.8466 68.1775L32.1381 70.8696L33.1052 71.1241ZM36.4771 78.43L35.5692 78.8491L36.7196 81.3417L37.4419 78.6932L36.4771 78.43ZM39.8491 66.0662L40.6971 65.5362L39.4857 63.598L38.8843 65.8031L39.8491 66.0662ZM45.469 75.0581L44.621 75.5881L45.6736 77.2722L46.3998 75.4237L45.469 75.0581ZM52.5677 58.9227C52.347 58.4164 51.7577 58.1849 51.2514 58.4056L43.0011 62.0018C42.4948 62.2225 42.2633 62.8118 42.484 63.3181C42.7047 63.8244 43.294 64.0559 43.8003 63.8352L51.1338 60.6385L54.3305 67.9721C54.5512 68.4784 55.1405 68.7099 55.6468 68.4892C56.1531 68.2685 56.3846 67.6792 56.1639 67.1729L52.5677 58.9227ZM23.1361 88.3335C23.0188 88.8732 23.3612 89.4058 23.9009 89.5231C24.4405 89.6404 24.9731 89.298 25.0905 88.7584L23.1361 88.3335ZM26.9232 75.6201L27.8011 75.1412L26.5161 72.7854L25.9461 75.4076L26.9232 75.6201ZM31.2623 82.0565L34.0723 71.3786L32.1381 70.8696L29.3281 81.5475L31.2623 82.0565ZM32.1972 71.5432L35.5692 78.8491L37.3851 78.011L34.0131 70.7051L32.1972 71.5432ZM37.4419 78.6932L40.8139 66.3293L38.8843 65.8031L35.5124 78.1669L37.4419 78.6932ZM39.0011 66.5962L44.621 75.5881L46.317 74.5281L40.6971 65.5362L39.0011 66.5962ZM46.3998 75.4237L52.5817 59.6879L50.7202 58.9566L44.5383 74.6924L46.3998 75.4237ZM25.0905 88.7584L27.9004 75.8325L25.9461 75.4076L23.1361 88.3335L25.0905 88.7584ZM26.0454 76.0989L29.4173 82.2809L31.1731 81.3232L27.8011 75.1412L26.0454 76.0989Z" fill="white"/>
<path d="M84.243 98.3121H7.75391C4.99249 98.3121 2.75391 96.0735 2.75391 93.3121V7.00001C2.75391 4.23858 4.99248 2 7.75391 2H177.245C180.006 2 182.245 4.23858 182.245 7V93.3121C182.245 96.0735 180.006 98.3121 177.245 98.3121H84.8381" stroke="white" stroke-width="4" stroke-linecap="round"/>
<path d="M2.75538 15.1328H78.0622M182.246 15.1328H75.8142" stroke="white" stroke-width="4" stroke-linecap="round"/>
<circle cx="26.8334" cy="8.56586" r="2.18891" fill="white"/>
<circle cx="20.2631" cy="8.56586" r="2.18891" fill="white"/>
<circle cx="33.3998" cy="8.56586" r="2.18891" fill="white"/>
<rect x="51.2109" y="49.332" width="36.2156" height="26.0997" rx="4" transform="rotate(-180 51.2109 49.332)" stroke="white" stroke-width="2"/>
<rect x="91.6719" y="49.332" width="36.2156" height="26.0997" rx="4" transform="rotate(-180 91.6719 49.332)" stroke="white" stroke-width="2"/>
<rect x="132.137" y="49.332" width="36.2156" height="26.0997" rx="4" transform="rotate(-180 132.137 49.332)" stroke="white" stroke-width="2"/>
<rect x="173.723" y="49.332" width="36.2156" height="26.0997" rx="4" transform="rotate(-180 173.723 49.332)" stroke="white" stroke-width="2"/>
<rect x="77.0625" y="93.166" width="62.0673" height="38.4635" rx="4" transform="rotate(-180 77.0625 93.166)" stroke="white" stroke-width="2"/>
<path d="M84.8047 68.3145H117.4" stroke="white" stroke-width="3" stroke-linecap="round"/>
<path d="M84.8047 61.5723H117.4" stroke="white" stroke-width="3" stroke-linecap="round"/>
<path d="M84.8047 72.8105H117.4" stroke="white" stroke-width="3" stroke-linecap="round"/>
<path d="M84.8047 77.3066H117.4" stroke="white" stroke-width="3" stroke-linecap="round"/>
<path d="M84.8047 81.8027H117.4" stroke="white" stroke-width="3" stroke-linecap="round"/>
<path d="M84.8047 86.2988H117.4" stroke="white" stroke-width="3" stroke-linecap="round"/>
<path d="M121.898 33.4707H128.642" stroke="white" stroke-linecap="round"/>
<path d="M121.898 30.0996H128.642" stroke="white" stroke-linecap="round"/>
<path d="M121.898 35.7188H128.642" stroke="white" stroke-linecap="round"/>
<path d="M121.898 37.9668H128.642" stroke="white" stroke-linecap="round"/>
<path d="M121.898 40.2148H128.642" stroke="white" stroke-linecap="round"/>
<path d="M121.898 42.4629H128.642" stroke="white" stroke-linecap="round"/>
<path d="M21.8633 45.8359V31.2241" stroke="white" stroke-width="3" stroke-linecap="square"/>
<path d="M26.3594 45.8359V34.5961" stroke="white" stroke-width="3" stroke-linecap="square"/>
<path d="M30.8555 45.8359V27.8521" stroke="white" stroke-width="3" stroke-linecap="square"/>
<path d="M35.3477 45.8359V28.9761" stroke="white" stroke-width="3" stroke-linecap="square"/>
<path d="M39.8438 45.8359V27.8521" stroke="white" stroke-width="3" stroke-linecap="square"/>
<path d="M44.3398 45.8359V27.8521" stroke="white" stroke-width="3" stroke-linecap="square"/>
<path d="M84.8047 45.8359V31.2241" stroke="white" stroke-width="3" stroke-linecap="square"/>
<path d="M80.3086 45.8359V34.5961" stroke="white" stroke-width="3" stroke-linecap="square"/>
<path d="M75.8125 45.8359V27.8521" stroke="white" stroke-width="3" stroke-linecap="square"/>
<path d="M71.3164 45.8359V28.9761" stroke="white" stroke-width="3" stroke-linecap="square"/>
<path d="M66.8203 45.8359V27.8521" stroke="white" stroke-width="3" stroke-linecap="square"/>
<path d="M62.3242 45.8359V37.968" stroke="white" stroke-width="3" stroke-linecap="square"/>
<path d="M160.113 44.7109V27.8511" stroke="white" stroke-width="5" stroke-linecap="square"/>
<path d="M151.121 44.7109V36.843" stroke="white" stroke-width="5" stroke-linecap="square"/>
<mask id="path-38-inside-1_1825_8342" fill="white">
<path d="M117.402 35.7185C117.402 37.9187 116.595 40.0427 115.134 41.6881C113.674 43.3335 111.66 44.3863 109.475 44.647C107.291 44.9077 105.086 44.3584 103.279 43.1029C101.472 41.8474 100.188 39.973 99.6705 37.8345C99.1527 35.696 99.437 33.4419 100.469 31.4989C101.502 29.556 103.211 28.059 105.273 27.2914C107.335 26.5239 109.607 26.539 111.659 27.334C113.71 28.129 115.399 29.6486 116.406 31.6052L108.41 35.7185H117.402Z"/>
</mask>
<path d="M117.402 35.7185C117.402 37.9187 116.595 40.0427 115.134 41.6881C113.674 43.3335 111.66 44.3863 109.475 44.647C107.291 44.9077 105.086 44.3584 103.279 43.1029C101.472 41.8474 100.188 39.973 99.6705 37.8345C99.1527 35.696 99.437 33.4419 100.469 31.4989C101.502 29.556 103.211 28.059 105.273 27.2914C107.335 26.5239 109.607 26.539 111.659 27.334C113.71 28.129 115.399 29.6486 116.406 31.6052L108.41 35.7185H117.402Z" fill="white" stroke="white" stroke-width="2" mask="url(#path-38-inside-1_1825_8342)"/>
</svg>
