<svg width="183" height="49" viewBox="0 0 183 49" fill="none" xmlns="http://www.w3.org/2000/svg">
<path d="M0 6.05859V41.8839H6.32208V13.7154L29.6374 41.8978H69.2312V36.1781H43.6812V26.7205H64.2259V21.0009H43.6812V11.7935H69.2298V6.06972H37.3577V11.7935H37.3606V41.6336L7.90188 6.05859H0ZM121.652 6.0725V11.7949H134.562V41.902H140.881V11.7949H153.53V6.07111H121.652V6.0725ZM76.8714 6.0878L106.509 41.9159H114.805L99.9866 24.0143L114.784 6.11561L106.506 6.12951L95.842 19.0081L85.1479 6.08919H76.87L76.8714 6.0878ZM177.175 26.3881C176.087 26.3881 175.11 26.5661 174.243 26.936C173.382 27.3022 172.702 27.8158 172.204 28.4769C171.704 29.1397 171.454 29.9111 171.454 30.7909C171.452 31.8607 171.824 32.7169 172.569 33.3593C173.31 34.0046 174.322 34.4848 175.606 34.8L177.378 35.2339C177.879 35.3518 178.369 35.5071 178.845 35.6984C179.215 35.84 179.548 36.0589 179.822 36.3395C180.059 36.6087 180.186 36.9541 180.176 37.3087C180.18 37.7155 180.037 38.1107 179.772 38.4254C179.484 38.7631 179.109 39.0199 178.685 39.1694C178.168 39.3556 177.619 39.4462 177.067 39.4364C176.524 39.4448 175.983 39.3591 175.471 39.1833C175.025 39.0271 174.629 38.76 174.322 38.4087C174.019 38.0387 173.843 37.5861 173.819 37.114H171.044C171.082 38.1032 171.351 38.9432 171.853 39.6338C172.605 40.6699 173.048 40.8479 173.94 41.2052C174.826 41.5668 175.88 41.7476 177.088 41.7476C178.339 41.7457 179.403 41.5603 180.281 41.1913C181.162 40.8159 181.836 40.2976 182.302 39.6366C182.77 38.9705 183 38.2071 183 37.331C182.999 36.682 182.872 36.1179 182.62 35.6386C182.371 35.1607 182.02 34.7401 181.59 34.4051C181.144 34.0571 180.649 33.7728 180.121 33.561C179.571 33.3335 179.002 33.1543 178.419 33.0256L176.961 32.6779C176.639 32.603 176.32 32.5125 176.007 32.4068C175.708 32.3079 175.421 32.1749 175.154 32.0104C174.905 31.8659 174.695 31.6669 174.539 31.4292C174.384 31.1878 174.305 30.9072 174.313 30.6226C174.313 30.2633 174.433 29.9136 174.653 29.6255C174.877 29.3335 175.204 29.1026 175.623 28.9302C176.104 28.7511 176.617 28.6643 177.133 28.6743C177.969 28.6734 178.651 28.8509 179.177 29.2069C179.431 29.3734 179.644 29.5938 179.798 29.8515C179.952 30.1092 180.044 30.3976 180.068 30.6949H182.784C182.782 29.8944 182.526 29.114 182.051 28.4602C181.574 27.8112 180.918 27.3032 180.082 26.936C179.248 26.5689 178.279 26.3863 177.175 26.3881ZM165.741 26.5884V37.0876C165.736 37.6133 165.652 38.0555 165.489 38.4143C165.342 38.7525 165.089 39.0368 164.766 39.2264C164.452 39.4118 164.07 39.5045 163.618 39.5045C163.204 39.5045 162.837 39.4257 162.515 39.2681C162.205 39.12 161.946 38.8876 161.769 38.5992C161.584 38.2813 161.488 37.9217 161.49 37.5562H158.684C158.682 38.4759 158.895 39.2435 159.323 39.8591C159.75 40.4765 160.351 40.9604 161.054 41.2525C161.831 41.5766 162.669 41.7378 163.513 41.7253C164.511 41.7253 165.386 41.5399 166.137 41.1691C166.872 40.8139 167.486 40.2589 167.904 39.5713C168.323 38.8787 168.537 38.0504 168.544 37.0862V26.5884H165.741ZM89.4927 26.6704L76.8486 41.9423H85.1479L93.636 31.6795L89.4927 26.6704ZM154.951 38.488C154.488 38.488 154.092 38.6437 153.764 38.9552C153.605 39.0979 153.48 39.2716 153.395 39.4651C153.31 39.6585 153.268 39.8672 153.273 40.0774C153.267 40.2901 153.308 40.5015 153.393 40.6976C153.478 40.8937 153.604 41.0701 153.764 41.215C154.092 41.5274 154.488 41.6832 154.951 41.6822C155.24 41.6846 155.524 41.6095 155.772 41.4653C156.022 41.3257 156.233 41.1267 156.384 40.8868C156.539 40.6439 156.621 40.3635 156.621 40.0774C156.621 39.8666 156.575 39.658 156.488 39.4649C156.401 39.2718 156.274 39.0982 156.115 38.9552C155.963 38.8055 155.781 38.687 155.582 38.6068C155.382 38.5265 155.167 38.4861 154.951 38.488Z" fill="#9CA3AF"/>
</svg>
