<svg width="123" height="111" viewBox="0 0 123 111" fill="none" xmlns="http://www.w3.org/2000/svg">
<path d="M40.3906 17.4707L6.90523 53.556L26.7405 75.7062" stroke="white" stroke-width="10" stroke-linecap="round"/>
<path d="M94.5132 32.0312L116.095 53.7907L82.6094 90.2667" stroke="white" stroke-width="10" stroke-linecap="round"/>
<path d="M32.8688 104.937C32.8344 104.932 32.8004 104.923 32.7673 104.913L30.8395 104.285C28.51 103.526 27.1242 101.137 27.6227 98.7379L28.9934 90.7387C29.1205 89.9968 29.184 89.6258 29.2752 89.2611C29.3664 88.8963 29.4848 88.539 29.7216 87.8245L32.7498 78.6878L34.7546 72.9906C35.0004 72.2923 35.1232 71.9432 35.2676 71.6116C35.9262 70.0991 36.9487 68.7731 38.244 67.7517C38.528 67.5277 38.8344 67.3201 39.4473 66.905C40.0008 66.53 40.2775 66.3425 40.5606 66.1767C41.8505 65.4212 43.2933 64.9645 44.783 64.8402C45.1099 64.8129 45.4442 64.807 46.1126 64.7952L46.8829 64.7816C47.3362 64.7736 47.5629 64.7696 47.7874 64.7757C48.847 64.8046 49.8952 65.0018 50.8929 65.3598C51.1043 65.4357 51.314 65.5218 51.7334 65.6939L52.6119 66.0545C52.6419 66.0669 52.6569 66.073 52.6713 66.079C55.271 67.1555 57.2969 69.2775 58.2519 71.9243C58.2571 71.9389 58.2626 71.9542 58.2735 71.9847C58.2761 71.992 58.2774 71.9957 58.2787 71.9993C58.5107 72.6503 58.6746 73.3235 58.7678 74.0083C58.7683 74.0121 58.7689 74.0159 58.7699 74.0236L59.0497 76.0919C59.1446 76.7935 59.1435 77.5048 59.0464 78.2062C58.7647 80.2411 57.6913 82.0826 56.0594 83.3304L54.3921 84.6052L38.8314 93.4347C37.7522 94.047 36.8376 94.912 36.1661 95.9553L34.7269 98.1913C33.4072 100.242 33.8585 102.959 35.7702 104.473L36.2613 104.862C36.2832 104.879 36.3074 104.893 36.3333 104.904C36.6622 105.039 36.5227 105.532 36.1718 105.475L32.8688 104.937Z" fill="white"/>
<path d="M96.8734 4.26124C97.9783 2.91527 99.9455 2.67435 101.343 3.71391C102.74 4.75347 103.074 6.70698 102.102 8.1519L67.3595 59.8034L58.967 69.1812C57.2049 71.1501 54.232 71.45 52.1122 69.8726C49.9924 68.2952 49.4257 65.3614 50.8056 63.108L57.3775 52.3756L96.8734 4.26124Z" fill="white"/>
</svg>
