<svg width="69" height="69" viewBox="0 0 69 69" fill="none" xmlns="http://www.w3.org/2000/svg">
<path d="M34.4977 30.6203C37.2664 30.6203 39.5109 28.3758 39.5109 25.607C39.5109 22.8383 37.2664 20.5938 34.4977 20.5938C31.7289 20.5938 29.4844 22.8383 29.4844 25.607C29.4844 28.3758 31.7289 30.6203 34.4977 30.6203Z" fill="#9CA3AF"/>
<path d="M34.5008 44.0422C38.4359 47.8695 42.3172 50.1336 45.4438 50.1336C46.468 50.1336 47.4383 49.918 48.2469 49.4328C51.05 47.8156 52.0742 43.7727 51.1039 38.0047C50.9422 36.9805 50.7266 35.9563 50.457 34.8781C51.5352 34.5547 52.5055 34.2313 53.4758 33.9078C58.9203 31.8055 61.9391 28.8945 61.9391 25.7141C61.9391 22.4797 58.9203 19.5688 53.4758 17.5203C52.5055 17.143 51.5352 16.8195 50.457 16.55C50.7266 15.4719 50.9422 14.4477 51.1039 13.4234C52.0203 7.54766 50.9961 3.45078 48.193 1.83359C47.3844 1.34844 46.4141 1.13281 45.3898 1.13281C42.3172 1.13281 38.382 3.39687 34.4469 7.22422C30.5656 3.39687 26.6844 1.13281 23.5578 1.13281C22.5336 1.13281 21.5633 1.34844 20.7547 1.83359C17.9516 3.45078 16.9273 7.49375 17.8977 13.2617C18.0594 14.2859 18.275 15.3102 18.5445 16.3883C17.4664 16.7117 16.4961 17.0352 15.5258 17.3586C10.0812 19.4609 7.0625 22.3719 7.0625 25.5523C7.0625 28.7867 10.0812 31.6977 15.5258 33.7461C16.4961 34.1234 17.4664 34.4469 18.5445 34.7164C18.275 35.7945 18.0594 36.8188 17.8977 37.843C16.9812 43.6109 18.0055 47.7078 20.7547 49.2711C21.5633 49.7563 22.5336 49.9719 23.5578 49.9719C26.6844 50.0797 30.5656 47.8156 34.5008 44.0422ZM31.482 36.7648C32.4523 36.8188 33.4766 36.8188 34.5008 36.8188C35.525 36.8188 36.5492 36.8188 37.5195 36.7648C36.5492 38.0586 35.525 39.2445 34.5008 40.3766C33.4766 39.2445 32.4523 38.0586 31.482 36.7648ZM24.7977 31.2125C25.3367 32.1289 25.8219 32.9914 26.4148 33.8539C24.7438 33.6383 23.1805 33.3688 21.6711 33.0453C22.1562 31.5898 22.6953 30.0805 23.3422 28.5711C23.7734 29.4336 24.2586 30.35 24.7977 31.2125ZM21.6711 18.2211C23.1805 17.8977 24.7438 17.6281 26.4148 17.4125C25.8758 18.275 25.3367 19.1375 24.7977 20.0539C24.2586 20.9703 23.7734 21.8328 23.3422 22.7492C22.6414 21.1859 22.1023 19.6766 21.6711 18.2211ZM24.6359 25.6063C25.3367 24.1508 26.0914 22.6953 26.9539 21.2398C27.7625 19.8383 28.6789 18.4367 29.5953 17.0352C31.2125 16.9273 32.8297 16.8734 34.5008 16.8734C36.2258 16.8734 37.843 16.9273 39.4062 17.0352C40.3766 18.4367 41.2391 19.8383 42.0477 21.2398C42.9102 22.6953 43.6648 24.1508 44.3656 25.6063C43.6648 27.0617 42.9102 28.5172 42.0477 29.9727C41.2391 31.3742 40.3227 32.7758 39.4062 34.1773C37.7891 34.2852 36.1719 34.3391 34.5008 34.3391C32.7758 34.3391 31.1586 34.2852 29.5953 34.1773C28.625 32.7758 27.7625 31.3742 26.9539 29.9727C26.0914 28.5172 25.3367 27.0617 24.6359 25.6063ZM45.7133 22.6953L44.2578 20C43.7188 19.0836 43.2336 18.2211 42.6406 17.3586C44.3117 17.5742 45.875 17.8438 47.3844 18.1672C46.8992 19.6766 46.3602 21.1859 45.7133 22.6953ZM45.7133 28.5172C46.3602 30.0266 46.8992 31.5359 47.3844 32.9914C45.875 33.3148 44.3117 33.5844 42.6406 33.8C43.1797 32.9375 43.7188 32.075 44.2578 31.1586C44.743 30.35 45.2281 29.4336 45.7133 28.5172ZM46.9531 47.2227C46.5219 47.4922 45.9828 47.6 45.3898 47.6C42.7484 47.6 39.4602 45.4438 36.2258 42.2094C37.7891 40.5383 39.2984 38.6516 40.8078 36.5492C43.3414 36.3336 45.7672 35.9563 48.0312 35.4172C48.3008 36.3875 48.4625 37.3578 48.6242 38.3281C49.3789 42.9102 48.7859 46.1984 46.9531 47.2227ZM49.7563 18.8141C55.7938 20.5391 59.4055 23.1805 59.4055 25.6063C59.4055 27.7086 56.9258 29.8109 52.5594 31.482C51.6969 31.8055 50.7266 32.1289 49.7563 32.3984C49.0555 30.1883 48.193 27.9242 47.1148 25.6063C48.193 23.2883 49.1094 21.0242 49.7563 18.8141ZM45.4438 3.6125C46.0367 3.6125 46.5219 3.72031 47.007 3.98984C48.7859 5.01406 49.4328 8.24844 48.6781 12.8844C48.5164 13.8008 48.3008 14.7711 48.0852 15.7953C45.8211 15.3102 43.3953 14.9328 40.8617 14.6633C39.4063 12.5609 37.843 10.6742 36.2797 9.00313C39.5141 5.82266 42.8023 3.6125 45.4438 3.6125ZM37.5195 14.4477C36.5492 14.3938 35.525 14.3938 34.5008 14.3938C33.4766 14.3938 32.4523 14.3938 31.482 14.4477C32.4523 13.1539 33.4766 11.968 34.5008 10.8359C35.525 11.968 36.5492 13.2078 37.5195 14.4477ZM22.0484 3.98984C22.4797 3.72031 23.0187 3.6125 23.6117 3.6125C26.2531 3.6125 29.5414 5.76875 32.7758 9.00313C31.2125 10.6742 29.7031 12.5609 28.1937 14.6633C25.6602 14.8789 23.2344 15.2563 20.9703 15.7953C20.7008 14.825 20.5391 13.8547 20.3773 12.8844C19.6227 8.30234 20.2156 5.06797 22.0484 3.98984ZM19.2453 32.3984C13.2078 30.6734 9.59609 28.032 9.59609 25.6063C9.59609 23.5039 12.0758 21.4016 16.4422 19.7305C17.3047 19.407 18.275 19.0836 19.2453 18.8141C19.9461 21.0242 20.8086 23.2883 21.8867 25.6063C20.8086 27.9242 19.8922 30.2422 19.2453 32.3984ZM20.3773 38.3281C20.5391 37.4117 20.7547 36.4414 20.9703 35.4172C23.2344 35.9023 25.6602 36.2797 28.1937 36.5492C29.6492 38.6516 31.2125 40.5383 32.7758 42.2094C29.5414 45.3899 26.2531 47.6 23.6117 47.6C23.0187 47.6 22.5336 47.4922 22.0484 47.2227C20.2156 46.1984 19.6227 42.9102 20.3773 38.3281ZM18.1133 60.5375C19.2992 59.082 19.3531 57.4649 18.7063 55.8477C18.0594 54.2305 16.7117 53.4758 15.0406 53.4219C13.0461 53.368 10.9977 53.4219 9.00313 53.4219H8.62578V67.3836H10.243V62.1008H12.7766C13.1 62.1008 13.3695 62.2086 13.5312 62.4781L16.7656 67.4914C16.8195 67.5992 16.9812 67.7609 17.0891 67.7609H19.1914C17.8977 65.7664 16.6578 63.8797 15.3641 61.9391C16.4961 61.7774 17.4664 61.4 18.1133 60.5375ZM10.243 60.4297V55.093H10.8359C12.0758 55.093 13.3695 55.0391 14.6094 55.1469C16.0648 55.2008 17.0891 56.3328 17.0891 57.7883C17.0891 59.2438 15.9031 60.3758 14.4477 60.4297C13.1539 60.4836 11.8602 60.4297 10.243 60.4297ZM31.1047 61.1305C30.2422 57.357 26.7922 56.3867 24.1508 57.5727C22.1023 58.4891 21.1859 60.268 21.132 62.4781C21.0781 64.1492 21.5633 65.6586 22.857 66.7906C24.3125 68.0844 26.0914 68.2461 27.9242 67.9227C28.9484 67.707 29.8648 67.2219 30.5656 66.4672C30.2961 66.0899 30.0266 65.7125 29.757 65.3891C28.2477 66.6828 26.5766 67.1141 24.7438 66.2516C23.5578 65.6586 22.9648 64.2031 22.857 63.125H31.2125V62.4242C31.2664 61.9391 31.2125 61.5078 31.1047 61.1305ZM22.9648 61.993C22.8031 60.3758 24.4203 58.6508 26.1992 58.6508C28.2477 58.5969 29.5414 59.8367 29.5953 61.993H22.9648ZM39.5141 57.3031C38.7055 57.1414 37.843 57.0875 37.0344 57.1414C35.7406 57.2492 34.6086 57.8422 33.6922 58.8125C33.9617 59.1898 34.1773 59.5672 34.5008 59.9984C34.6086 59.8906 34.7164 59.7828 34.8242 59.7289C35.6867 58.9203 36.7109 58.4891 37.9508 58.5969C38.9211 58.6508 39.8375 58.9742 40.107 59.9445C40.3227 60.6992 40.2688 61.5078 40.3227 62.3164C40.1609 62.3164 40.107 62.2625 40.0531 62.2086C38.7594 61.1305 37.3039 60.9148 35.7406 61.2922C34.2852 61.6695 33.3687 62.8016 33.2609 64.257C33.1531 65.9281 33.9078 67.168 35.3633 67.7609C36.2797 68.1383 37.3039 68.1383 38.2742 67.9227C39.0289 67.7609 39.3523 67.3297 40.4305 66.7367V67.4375H41.9398C41.9398 65.2813 41.9938 62.6399 41.9398 60.1602C41.9398 58.5969 41.0234 57.6266 39.5141 57.3031ZM40.2687 64.0953C40.2148 64.257 40.2687 64.4188 40.2687 64.5805C40.2687 65.7125 39.9992 66.0899 38.9211 66.5211C38.1664 66.7906 37.3578 66.8984 36.5492 66.6289C35.6328 66.3594 34.9859 65.5508 34.9859 64.6344C34.932 63.718 35.525 62.8016 36.4414 62.532C37.6812 62.1008 38.8133 62.3703 39.8375 63.125C40.1609 63.3945 40.3766 63.6641 40.2687 64.0953ZM48.6781 58.7586C50.0797 58.3274 51.3734 58.5969 52.3438 59.7828L52.5055 59.8906C52.8828 59.5672 53.2062 59.2438 53.6375 58.8664C53.4758 58.7047 53.4219 58.5969 53.3141 58.4352C51.7508 56.7641 48.6781 56.5484 46.7914 57.8961C44.15 59.8367 44.2039 63.6102 45.4977 65.6047C46.7375 67.4914 48.5164 68.1383 50.6188 67.8688C51.8586 67.707 52.8828 67.1141 53.6914 66.0899C53.3141 65.7664 52.9367 65.443 52.5594 65.0656C52.4516 65.1734 52.3977 65.2273 52.3438 65.3352C50.8883 66.9523 48.4625 66.7906 47.1688 65.0656C46.4141 64.0414 46.2523 62.8555 46.468 61.6695C46.5758 60.3219 47.2766 59.2438 48.6781 58.7586ZM59.8906 66.0899C59.7828 66.1438 59.7289 66.1977 59.7289 66.1977C59.2977 66.5211 58.8664 66.575 58.3813 66.4133C57.8961 66.1977 57.8422 65.7664 57.7883 65.3352V59.1899C57.7883 59.082 57.7883 59.2977 57.8422 58.7586H59.8906V57.1414H57.7344V54.4461H56.1172V57.357H54.7156C54.6078 57.357 54.4461 57.4649 54.4461 57.5727C54.3922 57.95 54.4461 58.2195 54.4461 58.7586H56.1711V65.6586C56.1711 66.5211 56.3867 67.2758 57.1414 67.707C57.95 68.1922 59.5133 68.0844 60.2141 67.4914C60.3219 67.4375 60.3758 67.2219 60.3758 67.168C60.2141 66.8445 60.0523 66.4672 59.8906 66.0899Z" fill="#9CA3AF"/>
</svg>
