<svg width="67" height="67" viewBox="0 0 67 67" fill="none" xmlns="http://www.w3.org/2000/svg">
<path d="M43.1959 28.607C36.4331 32.9651 29.732 37.284 22.8541 41.7154L53.5877 45.9113L43.1959 28.607ZM56.4959 9.32195L44.4328 27.4685C44.2595 27.7302 44.035 27.9375 44.2789 28.3395C47.2855 33.3032 50.2675 38.2827 53.2569 43.2564C53.7285 44.0421 54.2059 44.8246 54.8162 45.5784L56.6289 9.36121L56.4959 9.32195ZM15.4595 24.799C15.6003 24.9324 15.9515 25.0094 16.1143 24.9293C18.9979 23.5118 21.8998 22.1263 24.7206 20.5921C25.6398 20.0927 26.3464 19.1961 27.1395 18.4695C29.7628 16.0624 32.3837 13.6525 35.002 11.2398C35.1627 11.0917 35.3517 10.9488 35.448 10.7619C36.3886 8.92309 37.3125 7.07588 38.2698 5.17423C37.1282 4.74659 36.0463 4.32627 34.9512 3.94416C34.8026 3.89234 34.5691 3.99545 34.4069 4.08548C31.8719 5.50191 29.2892 6.84243 26.8343 8.38709C25.6058 9.15969 24.605 10.2982 23.5173 11.2906C21.7653 12.8902 20.0144 14.4935 18.2871 16.1214C17.8258 16.5576 17.4126 17.0419 17.0544 17.5661C15.8725 19.2861 14.7272 21.0307 13.528 22.8256C14.199 23.5197 14.8078 24.1823 15.4595 24.799ZM25.9978 22.4471C24.5641 28.507 23.1372 34.5323 21.6643 40.7559L42.0265 27.636L25.9978 22.4471ZM37.4281 12.271L43.3011 26.5567C47.1348 20.7983 50.892 15.1536 54.7346 9.38005L37.4281 12.271ZM26.2386 21.2076L41.948 26.3075C39.9794 21.5112 38.0782 16.883 36.1373 12.1564L26.2386 21.2076ZM15.6767 28.3327L10.1785 41.4757L20.6499 41.1663L15.6767 28.3327ZM20.7745 38.1183L20.9043 38.0901C22.161 32.862 23.4367 27.67 24.7206 22.2383L16.3195 26.6043C17.7511 30.327 19.2785 34.2528 20.7745 38.1183ZM52.6214 8.53261C50.9491 8.08978 49.2782 7.64486 47.6043 7.20517C45.2001 6.57338 42.7939 5.9484 40.3908 5.31033C40.0909 5.23077 39.8731 5.17895 39.6967 5.54064C38.8477 7.28055 37.9715 9.00789 37.1088 10.741C37.0821 10.7949 37.0874 10.865 37.067 10.9985L52.6183 8.64201L52.6214 8.53261ZM42.9211 4.57437L56.5498 8.3447L54.298 1.9284L42.9415 4.44666L42.9211 4.57437ZM47.0468 46.1133L35.8657 44.587C31.2212 43.9531 26.5851 43.2554 21.9302 42.7188C20.2421 42.5246 18.509 42.7037 16.7974 42.7324C15.3909 42.7565 13.9844 42.8099 12.5785 42.8544C12.4335 42.8586 12.289 42.8879 12.1451 43.0434C23.771 44.1182 35.3967 45.1933 47.0222 46.2688L47.0468 46.1133ZM10.4078 37.464C11.9069 33.9879 13.3976 30.5091 14.902 27.0361C15.0528 26.687 15.0418 26.4509 14.7471 26.1709C14.1174 25.5715 13.5332 24.9261 12.8449 24.2111L10.1016 37.753L10.2026 37.8011C10.2722 37.6891 10.3565 37.5844 10.4078 37.464ZM39.9359 3.65679C42.4626 3.00459 45.0258 2.4958 47.5739 1.92683C47.7383 1.88966 47.8995 1.83523 48.0618 1.78864L48.0372 1.66406L37.089 3.13649C38.1175 3.58613 38.9095 3.92165 39.9359 3.65679ZM16.2164 57.2741V61.7479H13.7436V50.0873H17.1413C18.7255 50.0873 19.8979 50.3757 20.6582 50.9525C21.4186 51.5293 21.799 52.4052 21.7993 53.5802C21.7993 54.2666 21.6104 54.8767 21.2325 55.4106C20.8556 55.9452 20.3212 56.3642 19.6292 56.6674L23.0593 61.7474H20.3154L17.5323 57.2735L16.2164 57.2741ZM16.2164 55.2641H17.0141C17.7954 55.2641 18.3722 55.1337 18.7446 54.8731C19.1166 54.6124 19.3025 54.2031 19.3025 53.6451C19.3025 53.092 19.1124 52.6985 18.732 52.4647C18.3516 52.2309 17.7629 52.1138 16.9659 52.1135H16.2158L16.2164 55.2641ZM30.6517 61.7479L30.3251 60.6073H30.1974C29.9367 61.0222 29.5673 61.3426 29.0893 61.5683C28.6101 61.7941 28.0651 61.907 27.454 61.907C26.4061 61.907 25.6164 61.6266 25.085 61.0658C24.2878 60.2247 24.2878 59.6981 24.2878 58.6455V52.8311H26.7202V58.0393C26.7202 58.6825 26.8346 59.1651 27.0636 59.4872C27.2918 59.8089 27.6557 59.9696 28.1554 59.9692C28.8363 59.9692 29.3281 59.7421 29.631 59.2877C29.9343 58.833 30.0859 58.0795 30.0859 57.027V52.8316H32.5183V61.7484L30.6517 61.7479ZM40.0312 52.6631C41.0837 52.6631 41.9081 53.074 42.5044 53.8958C43.0994 54.7169 43.3969 55.8428 43.3969 57.2735C43.3969 58.7461 43.09 59.8864 42.4762 60.6942C41.862 61.5027 41.0257 61.9068 39.9673 61.9065C38.9201 61.9065 38.0987 61.5261 37.503 60.7654H37.3355L36.9293 61.7468H35.0706V49.3377H37.503V52.225C37.503 52.5917 37.4709 53.1794 37.4067 53.9879H37.503C38.0718 53.1051 38.9145 52.6635 40.0312 52.6631ZM39.2492 54.6098C38.649 54.6098 38.2105 54.7945 37.9338 55.1641C37.6571 55.534 37.5135 56.1443 37.503 56.9951V57.2578C37.503 58.215 37.645 58.9011 37.9291 59.316C38.2138 59.7306 38.6647 59.9378 39.2816 59.9378C39.781 59.9378 40.1783 59.7079 40.4735 59.2479C40.7687 58.7884 40.9163 58.1198 40.9163 57.2421C40.9163 56.3645 40.7673 55.7064 40.4693 55.2677C40.172 54.8291 39.7653 54.6098 39.2492 54.6098ZM43.9711 52.8311H46.6349L48.3177 57.8477C48.4615 58.2839 48.5597 58.7997 48.6124 59.395H48.6606C48.7185 58.8472 48.8326 58.3314 49.0029 57.8477L50.6538 52.8311H53.2616L49.4892 62.8885C49.1437 63.8188 48.6508 64.5153 48.0105 64.978C47.3694 65.4404 46.6209 65.6716 45.7649 65.6716C45.3444 65.6716 44.9325 65.6264 44.5291 65.536V63.6061C44.8432 63.6773 45.164 63.7118 45.4859 63.7092C45.9162 63.7092 46.2924 63.5776 46.6145 63.3145C46.9366 63.0518 47.1876 62.6545 47.3677 62.1227L47.5111 61.6835L43.9711 52.8311Z" fill="#9CA3AF"/>
</svg>
