<svg width="163" height="121" viewBox="0 0 163 121" fill="none" xmlns="http://www.w3.org/2000/svg">
<rect x="68.8125" y="10.0488" width="7.54945" height="35.6813" rx="3.5" transform="rotate(-90 68.8125 10.0488)" stroke="white" stroke-width="3"/>
<path d="M94.5621 80.1205H56.7599M138.518 80.1205H155.496C158.258 80.1205 160.496 77.8819 160.496 75.1204V7.75781C160.496 4.99639 158.258 2.75781 155.496 2.75781H21.3203C18.5589 2.75781 16.3203 4.99639 16.3203 7.75782V14.1864V22.0985" stroke="white" stroke-width="4" stroke-linecap="round"/>
<path d="M90.1692 99.4618H69.0703L71.4009 92.248C71.6925 91.3453 71.7213 90.3782 71.4839 89.4597L69.0703 80.1211" stroke="white" stroke-width="4" stroke-linecap="round"/>
<rect x="96.9453" y="119.061" width="69.0879" height="35.6813" rx="3.5" transform="rotate(-90 96.9453 119.061)" stroke="white" stroke-width="3"/>
<rect x="2.5" y="95.7031" width="68.0879" height="48.7473" rx="3" transform="rotate(-90 2.5 95.7031)" stroke="white" stroke-width="4"/>
<path d="M109.508 53.748H120.057" stroke="white" stroke-width="2" stroke-linecap="round"/>
</svg>
