<svg width="105" height="106" viewBox="0 0 105 106" fill="none" xmlns="http://www.w3.org/2000/svg">
<path d="M65.4583 69.475C53.3113 69.475 54.4214 68.0345 54.4214 87.3125V92.7282H65.1066L68.6511 81.0066C71.1184 80.4075 73.5657 79.5119 75.9529 78.2904L87.9903 84.9868L95.1537 78.1652L88.6457 66.5863C89.9087 64.4733 90.9 62.2231 91.5981 59.8843L104.805 56.4682V46.8041L91.6686 43.1296C90.9943 40.7976 90.0295 38.5312 88.7714 36.3869L95.4524 25.0121L88.2886 18.1905L76.2483 24.6311C73.9514 23.4272 71.5958 22.5248 69.2196 21.9024L65.5045 9H55.3562L51.5331 22.1729C49.3023 22.824 47.1508 23.6997 45.1151 24.7852L32.4727 17.9063L25.3091 24.7279L32.4964 36.8817C30.6525 40.1094 29.3966 43.7233 28.903 47.6319H41.5807C44.1326 35.597 58.7263 28.7626 70.5588 35.259C86.685 44.102 81.1742 66.8194 65.4583 69.475Z" fill="white"/>
<circle cx="16.5" cy="16.5" r="14.75" transform="matrix(-1 0 0 1 77.8047 35)" stroke="white" stroke-width="3.5"/>
<circle cx="8.5" cy="8.5" r="6.75" transform="matrix(-1 0 0 1 51.3125 0)" stroke="white" stroke-width="3.5"/>
<circle cx="8.5" cy="8.5" r="6.75" transform="matrix(-1 0 0 1 86.3125 89)" stroke="white" stroke-width="3.5"/>
<circle cx="8.5" cy="8.5" r="6.75" transform="matrix(-1 0 0 1 47.3125 78)" stroke="white" stroke-width="3.5"/>
<circle cx="8.5" cy="8.5" r="6.75" transform="matrix(-1 0 0 1 25.3125 31)" stroke="white" stroke-width="3.5"/>
<path d="M47.8047 60L26.8047 74" stroke="white" stroke-width="6" stroke-linecap="round"/>
<path d="M70.3113 99.004L55.7671 99.0003C54.8172 99 53.887 98.7292 53.0854 98.2194L43.3113 92.004M35.3125 10L20.9555 15.7428C19.0573 16.5021 17.8125 18.3406 17.8125 20.3852L17.8125 32" stroke="white" stroke-width="4" stroke-linecap="round"/>
<path d="M17.3125 47L17.3125 81C17.3125 83.7614 19.5511 86 22.3125 86H31.3125" stroke="white" stroke-width="4" stroke-linecap="round"/>
<path fill-rule="evenodd" clip-rule="evenodd" d="M71.655 51.4126C69.6802 55.9086 65.3797 58.1471 61.5182 58.1471C57.6568 58.1471 53.3562 55.9086 51.3814 51.4126C52.3363 49.7557 53.8274 48.0947 55.57 46.8077C57.5287 45.3611 59.649 44.5 61.5182 44.5C63.3875 44.5 65.5077 45.3611 67.4665 46.8077C69.209 48.0947 70.7001 49.7557 71.655 51.4126ZM61.5182 59.6471C66.1152 59.6471 71.229 56.8725 73.3099 51.3235C71.229 47.1618 66.1152 43 61.5182 43C56.9213 43 51.8074 47.1618 49.7266 51.3235C51.8074 56.8725 56.9213 59.6471 61.5182 59.6471ZM62.5855 54.8003C63.0045 53.9622 63.2925 52.7345 63.2925 51.3237C63.2925 50.4519 63.1825 49.65 62.9996 48.9667C62.9534 48.869 62.923 48.7666 62.9104 48.6609C62.8154 48.3608 62.7058 48.0879 62.5855 47.8472C62.1365 46.9493 61.7013 46.7747 61.518 46.7747C61.3347 46.7747 60.8995 46.9493 60.4506 47.8472C60.0315 48.6853 59.7435 49.913 59.7435 51.3237C59.7435 52.7345 60.0315 53.9622 60.4506 54.8003C60.8995 55.6982 61.3347 55.8728 61.518 55.8728C61.7013 55.8728 62.1365 55.6982 62.5855 54.8003ZM63.5497 47.5447C63.0431 46.4558 62.3203 45.7747 61.518 45.7747C59.9857 45.7747 58.7435 48.2591 58.7435 51.3237C58.7435 54.3884 59.9857 56.8728 61.518 56.8728C63.0503 56.8728 64.2925 54.3884 64.2925 51.3237C64.2925 50.807 64.2572 50.3068 64.1911 49.8322C64.4357 49.8995 64.7036 49.9366 64.9846 49.9366C66.1339 49.9366 67.0655 49.3155 67.0655 48.5493C67.0655 47.7832 66.1339 47.1621 64.9846 47.1621C64.4283 47.1621 63.923 47.3076 63.5497 47.5447Z" fill="white"/>
</svg>
