<svg width="195" height="111" viewBox="0 0 195 111" fill="none" xmlns="http://www.w3.org/2000/svg">
<path d="M59.1634 80.573C73.5549 80.573 72.2397 78.8664 72.2397 101.706V108.123H59.5801L55.3806 94.2353C52.4575 93.5256 49.5581 92.4645 46.7297 91.0173L32.4681 98.951L23.9811 90.8689L31.6916 77.1506C30.1952 74.6471 29.0208 71.9811 28.1937 69.2102L12.5469 65.1629V53.7131L28.1102 49.3597C28.909 46.5968 30.0521 43.9116 31.5427 41.3711L23.6273 27.8946L32.1148 19.8125L46.3797 27.4431C49.101 26.0168 51.8919 24.9477 54.7071 24.2102L59.1087 8.92383H71.1322L75.6617 24.5307C78.3046 25.3021 80.8537 26.3396 83.2656 27.6258L98.2439 19.4758L106.731 27.5579L98.2159 41.9574C100.4 45.7814 101.888 50.063 102.473 54.6939H87.4531C84.4295 40.4352 67.1394 32.3381 53.1205 40.0348C34.0147 50.5117 40.5437 77.4267 59.1634 80.573Z" fill="white"/>
<path d="M58.0855 82.3703C56.596 88.6657 57.6005 88.2767 45.979 85.7831L42.7141 85.0826L44.0244 79.5448L51.5253 79.224C52.189 78.0227 53.029 76.8703 54.0581 75.791L51.4973 68.6863L56.4881 65.8561L62.6703 70.7267C64.099 70.3454 65.5771 70.1228 67.0726 70.0635L70.7514 63.6608L76.5773 64.9109L77.1817 72.1942C78.5048 72.8453 79.7528 73.6384 80.8912 74.5679L88.5676 72.5766L91.8015 77.1718L86.4424 82.5787C86.8865 83.9249 87.1416 85.2625 87.2255 86.5744L94.548 90.1688L93.3036 95.4283L84.8936 95.7058C84.2276 96.7777 83.4358 97.7795 82.5318 98.6942L85.1284 106.136L80.1376 108.966L73.6921 103.669C71.5203 104.207 69.1877 104.391 66.7709 104.141L68.3254 97.5707C75.8935 97.8048 81.8031 91.1254 79.3378 84.1527C75.9843 74.6512 61.6136 74.5688 58.0855 82.3703Z" fill="white"/>
<path d="M150.562 38.918L139.026 71.22" stroke="white" stroke-width="4" stroke-linecap="round"/>
<path d="M130.953 38.918L115.956 55.069L130.953 71.22" stroke="white" stroke-width="4" stroke-linecap="round"/>
<path d="M159.797 38.918L174.794 55.069L159.797 71.22" stroke="white" stroke-width="4" stroke-linecap="round"/>
<path d="M49.0442 103.521H7.89844C5.13702 103.521 2.89844 101.282 2.89844 98.5208V7C2.89844 4.23858 5.13701 2 7.89844 2H187.096C189.858 2 192.096 4.23858 192.096 7V98.5208C192.096 101.282 189.858 103.521 187.096 103.521H89.4218" stroke="white" stroke-width="4" stroke-linecap="round"/>
<path d="M2.90375 15.8418H51.4791M192.102 15.8418H79.9137" stroke="white" stroke-width="4" stroke-linecap="round"/>
<circle cx="28.2839" cy="8.92057" r="2.30729" fill="white"/>
<circle cx="21.3542" cy="8.92057" r="2.30729" fill="white"/>
<circle cx="35.1979" cy="8.92057" r="2.30729" fill="white"/>
</svg>
